<svg width="14" height="16" viewBox="0 0 14 16" fill="none" xmlns="http://www.w3.org/2000/svg">
<path fill-rule="evenodd" clip-rule="evenodd" d="M7.40716 4.84466C6.94871 1.8837 5.47087 1.33961 5.3991 1.3483L4.98836 1.5277C6.19388 2.49263 6.83729 3.61852 6.73781 4.85993L7.40716 4.84466Z" fill="#ff6400"/>
<path fill-rule="evenodd" clip-rule="evenodd" d="M7.90962 5.26115L6.26838 5.29858L6.30623 4.82615C6.39055 3.77391 5.85542 2.77228 4.71587 1.86016L4.16528 1.41945L5.28279 0.931339L5.3465 0.923633C5.41476 0.915376 5.4708 0.9253 5.48482 0.927784C5.48517 0.927846 5.4855 0.927903 5.48579 0.927956C5.50984 0.932189 5.53131 0.937661 5.54816 0.942452C5.58257 0.952237 5.61827 0.965086 5.65365 0.97965C5.72539 1.00918 5.81168 1.0523 5.90781 1.11156C6.10103 1.23068 6.3407 1.41915 6.58757 1.70529C7.08353 2.28014 7.59572 3.23383 7.83511 4.77995L7.90962 5.26115ZM5.3991 1.3483C5.4068 1.34736 5.43069 1.3528 5.46777 1.3669C5.75901 1.47764 6.86393 2.12296 7.33106 4.41845C7.35877 4.55463 7.38424 4.69663 7.40716 4.84466L6.73781 4.85993C6.74937 4.71566 6.7509 4.57295 6.74268 4.43187C6.68759 3.48671 6.19491 2.61478 5.34995 1.83752C5.23578 1.7325 5.11518 1.62921 4.98836 1.5277L5.3991 1.3483Z" fill="#ff6400"/>
<path fill-rule="evenodd" clip-rule="evenodd" d="M3.26936 3.72503C-0.440746 4.68744 -0.425434 8.7843 0.561512 11.5121C1.06762 12.9109 1.97726 14.2637 3.2085 15.1577C3.85024 15.6236 4.68712 15.8649 5.49039 15.916C5.99647 15.9481 6.47404 15.6237 6.98123 15.6243C7.58191 15.6251 8.16371 16.1161 8.74589 15.9743C12.1609 15.1426 13.4341 11.1091 13.5531 10.7829C14.7565 7.48412 13.5098 3.75191 10.0542 3.57919C8.90257 3.52163 8.05448 4.69984 7.1942 4.74579C5.93125 4.81325 4.57787 3.38559 3.26936 3.72502V3.72503Z" fill="#ff6400"/>
<path fill-rule="evenodd" clip-rule="evenodd" d="M6.82148 3.47062C6.82148 3.47062 7.24707 3.22571 7.47562 3.13523C8.12656 2.87753 9.02362 3.05012 9.4989 2.55193C10.1103 1.91105 10.0466 0 10.0466 0C10.0466 0 9.50681 0.502621 9.17943 0.670788C8.50939 1.01498 7.47829 0.757499 7.00403 1.327C6.53744 1.88729 6.39546 2.77553 6.82148 3.47062Z" fill="#ff6400"/>
<path fill-rule="evenodd" clip-rule="evenodd" d="M2.20373 7.46797C2.3224 7.48797 2.2138 8.34015 2.29184 9.55237C2.32769 10.1062 2.41492 10.7428 2.62835 11.3744C2.63675 11.3994 2.64536 11.4244 2.65416 11.4495C2.8676 12.0557 3.17197 12.5814 3.49934 13.0184C4.27358 14.0551 5.07344 14.5998 5.00329 14.6993C4.96272 14.7569 4.00778 14.4497 3.04628 13.3576C2.64724 12.9029 2.28315 12.3279 2.04311 11.6473C2.03322 11.6193 2.0236 11.5912 2.01424 11.5631C1.77892 10.8528 1.71454 10.1562 1.72993 9.5616C1.76339 8.25776 2.11789 7.4535 2.20373 7.46797Z" fill="#E7FFB1"/>
</svg>
