<svg width="288" height="264" viewBox="0 0 288 264" fill="none" xmlns="http://www.w3.org/2000/svg">
<path d="M41.5 88.9075C46.7598 85.8707 53.2402 85.8707 58.5 88.9075L84.8013 104.093C90.0611 107.129 93.3013 112.741 93.3013 118.815V149.185C93.3013 155.259 90.0611 160.871 84.8013 163.907L58.5 179.093C53.2402 182.129 46.7598 182.129 41.5 179.093L15.1987 163.907C9.93891 160.871 6.69873 155.259 6.69873 149.185V118.815C6.69873 112.741 9.93891 107.129 15.1987 104.093L41.5 88.9075Z" fill="url(#paint0_linear_123_1161)"/>
<path d="M181.5 4.90748C186.76 1.87072 193.24 1.87072 198.5 4.90748L224.801 20.0925C230.061 23.1293 233.301 28.7414 233.301 34.815V65.185C233.301 71.2586 230.061 76.8707 224.801 79.9075L198.5 95.0925C193.24 98.1293 186.76 98.1293 181.5 95.0925L155.199 79.9075C149.939 76.8707 146.699 71.2586 146.699 65.185V34.815C146.699 28.7414 149.939 23.1293 155.199 20.0925L181.5 4.90748Z" fill="url(#paint1_linear_123_1161)"/>
<path d="M184.5 167.907C189.76 164.871 196.24 164.871 201.5 167.907L227.801 183.093C233.061 186.129 236.301 191.741 236.301 197.815V228.185C236.301 234.259 233.061 239.871 227.801 242.907L201.5 258.093C196.24 261.129 189.76 261.129 184.5 258.093L158.199 242.907C152.939 239.871 149.699 234.259 149.699 228.185V197.815C149.699 191.741 152.939 186.129 158.199 183.093L184.5 167.907Z" fill="url(#paint2_linear_123_1161)"/>
<path d="M135.5 86.9075C140.76 83.8707 147.24 83.8707 152.5 86.9075L178.801 102.093C184.061 105.129 187.301 110.741 187.301 116.815V147.185C187.301 153.259 184.061 158.871 178.801 161.907L152.5 177.093C147.24 180.129 140.76 180.129 135.5 177.093L109.199 161.907C103.939 158.871 100.699 153.259 100.699 147.185V116.815C100.699 110.741 103.939 105.129 109.199 102.093L135.5 86.9075Z" fill="url(#paint3_linear_123_1161)"/>
<path d="M90.5 168.907C95.7598 165.871 102.24 165.871 107.5 168.907L133.801 184.093C139.061 187.129 142.301 192.741 142.301 198.815V229.185C142.301 235.259 139.061 240.871 133.801 243.907L107.5 259.093C102.24 262.129 95.7598 262.129 90.5 259.093L64.1987 243.907C58.9389 240.871 55.6987 235.259 55.6987 229.185V198.815C55.6987 192.741 58.9389 187.129 64.1987 184.093L90.5 168.907Z" fill="url(#paint4_linear_123_1161)"/>
<path d="M86.5 6.90748C91.7598 3.87072 98.2402 3.87072 103.5 6.90748L129.801 22.0925C135.061 25.1293 138.301 30.7414 138.301 36.815V67.185C138.301 73.2586 135.061 78.8707 129.801 81.9075L103.5 97.0925C98.2402 100.129 91.7598 100.129 86.5 97.0925L60.1987 81.9075C54.9389 78.8707 51.6987 73.2586 51.6987 67.185V36.815C51.6987 30.7414 54.9389 25.1293 60.1987 22.0925L86.5 6.90748Z" fill="url(#paint5_linear_123_1161)"/>
<defs>
<linearGradient id="paint0_linear_123_1161" x1="50" y1="87.5" x2="59" y2="156" gradientUnits="userSpaceOnUse">
<stop stop-color="#FF2E51"/>
<stop offset="1" stop-color="#FF5635"/>
</linearGradient>
<linearGradient id="paint1_linear_123_1161" x1="216.5" y1="5" x2="180.5" y2="88" gradientUnits="userSpaceOnUse">
<stop stop-color="#FF2359"/>
<stop offset="1" stop-color="#FF473F"/>
</linearGradient>
<linearGradient id="paint2_linear_123_1161" x1="168" y1="175" x2="214" y2="245.5" gradientUnits="userSpaceOnUse">
<stop stop-color="#FE5536"/>
<stop offset="0.647384" stop-color="#FF761E"/>
</linearGradient>
<linearGradient id="paint3_linear_123_1161" x1="132.5" y1="91" x2="161.5" y2="172" gradientUnits="userSpaceOnUse">
<stop stop-color="#FE3F47"/>
<stop offset="1" stop-color="#FF642C"/>
</linearGradient>
<linearGradient id="paint4_linear_123_1161" x1="99" y1="164" x2="117" y2="252.5" gradientUnits="userSpaceOnUse">
<stop stop-color="#FE2E50"/>
<stop offset="0.0001" stop-color="#FF642B"/>
<stop offset="0.975574" stop-color="#FF6434"/>
</linearGradient>
<linearGradient id="paint5_linear_123_1161" x1="62" y1="-30.5" x2="95" y2="102" gradientUnits="userSpaceOnUse">
<stop stop-color="#FF275E"/>
<stop offset="1" stop-color="#FE4542"/>
</linearGradient>
</defs>
</svg>
