<svg width="2595" height="577" viewBox="0 0 2595 577" fill="none" xmlns="http://www.w3.org/2000/svg">
<path d="M86.8093 248.595L102.472 250.755L236.936 269.302L256.755 272.036C256.755 272.036 262.295 254.788 263.379 245.836C266.048 223.782 261.408 203.588 246.881 191.396C242.388 187.626 233.385 182.935 222.562 177.296C198.386 164.7 165.128 147.372 152.763 124.998C152.133 123.983 151.585 123.059 151.069 122.191C149.412 119.402 148.095 117.186 145.518 114.343C143.29 111.886 141.89 110.624 139.262 108.6C132.574 103.451 127.331 100.78 119.657 99.5017C106.777 97.3689 94.4842 102.195 86.266 110.949L86.2766 110.934C64.5692 126.043 66.0874 146.05 67.665 166.84C68.2373 174.382 68.8174 182.026 68.2996 189.578C67.7293 197.899 65.7367 206.93 63.7356 215.999C61.5674 225.825 59.3892 235.697 59 244.759L86.8095 248.551L86.8093 248.595Z" fill="#E7FFB1"/>
<path d="M143.902 181.26C130.858 185.293 133.406 200.539 136.526 210.538C142.424 229.436 160.094 262.086 184.817 254.826C204.101 249.162 212.971 228.189 203.586 210.571C194.326 193.19 164.371 174.931 143.902 181.26Z" fill="#9A6508"/>
<path d="M102.472 250.755L86.8093 248.595C86.8094 248.58 86.8094 248.566 86.8095 248.551L59 244.759C59.3892 235.697 61.5674 225.825 63.7356 215.999C65.7367 206.93 67.7293 197.899 68.2996 189.578C68.8174 182.026 68.2373 174.382 67.665 166.84C66.0874 146.05 64.5692 126.043 86.2766 110.934C86.2731 110.939 86.2696 110.944 86.266 110.949C94.4842 102.195 106.777 97.3689 119.657 99.5017C127.331 100.78 132.574 103.451 139.262 108.6C141.89 110.624 143.29 111.886 145.518 114.343C148.095 117.186 149.412 119.402 151.069 122.191C151.585 123.059 152.133 123.983 152.763 124.998C165.128 147.372 198.386 164.7 222.562 177.296C233.385 182.935 242.388 187.626 246.881 191.396C261.408 203.588 266.048 223.782 263.379 245.836C262.295 254.788 256.755 272.036 256.755 272.036L236.936 269.302C239.847 261.87 254.044 223.456 241.882 210.206C229.536 196.754 213.224 188.435 196.856 180.087C184.436 173.753 171.984 167.402 161.207 158.78C154.582 153.48 149.444 146.951 144.314 140.433C139.697 134.566 135.086 128.708 129.404 123.76C119.055 114.751 105.446 110.161 95.6952 123.594C88.9413 132.899 93.1058 145.946 96.588 156.856C97.4224 159.47 98.2177 161.961 98.8141 164.249C104.145 184.696 103.484 208.207 102.861 230.358C102.665 237.338 102.472 244.184 102.472 250.755Z" fill="#60CE60"/>
<path d="M86.2766 110.934C56.6951 131.524 70.2448 161.209 68.2996 189.578C67.1114 206.916 59.7484 227.333 59 244.759L87.129 248.595C87.129 227.732 89.0187 203.566 86.0209 182.759C83.8191 167.479 78.8483 160.538 79.0312 145.882C79.2007 132.304 77.7527 123.719 86.2766 110.934Z" fill="#239F23"/>
<path fill-rule="evenodd" clip-rule="evenodd" d="M11.9525 247.467C7.46398 246.378 -1.13647 244.291 0.124936 248.64C0.998939 251.654 12.1995 253.987 22.2799 256.086C29.7101 257.634 36.5316 259.055 38.1607 260.528C40.9248 263.028 45.8204 273.186 51.0094 283.954L51.0094 283.954L51.0105 283.956C53.0286 288.144 55.091 292.423 57.0897 296.38C60.6419 303.413 64.582 310.869 68.4991 318.283C80.8196 341.6 92.9125 364.486 91.9897 372.38C90.7737 382.784 84.2897 388.647 77.0647 394.665C75.7641 395.749 74.4298 396.849 73.0733 397.968L73.0715 397.97L73.0676 397.973C60.2801 408.521 45.5183 420.698 38.3887 435.38C29.6475 453.383 45.1779 453.381 58.745 453.38L63.2075 453.45C61.2101 455.735 60 458.726 60 462C60 469.18 65.8203 475 73 475H77C84.1797 475 90 469.18 90 462C90 458.901 88.9157 456.055 87.1057 453.822L189.441 455.415C187.905 457.55 187 460.169 187 463C187 470.18 192.82 476 200 476H204C211.18 476 217 470.18 217 463C217 460.342 216.202 457.87 214.833 455.811L227 456C227 456 229 456 230 455.5C236.5 449 226.065 449.49 226.065 449.49L53.0647 448.341C52.8499 448.332 52.6129 448.323 52.3577 448.313C49.2783 448.2 43.5571 447.989 42.3667 445.063C41.0379 441.795 45.3388 435.973 47.5181 433.024L47.5193 433.022C47.6913 432.789 47.85 432.574 47.9917 432.38C54.6844 423.207 63.7115 415.25 72.3277 407.654C73.5717 406.557 74.8071 405.468 76.0257 404.384C105.519 378.143 140.167 363.571 177.065 350.875C213.963 338.179 282.065 325.38 282.065 325.38L287.033 285.944L14.0647 247.945C13.6097 247.869 12.8663 247.688 11.9525 247.467ZM73 455H77C80.866 455 84 458.134 84 462C84 465.866 80.866 469 77 469H73C69.134 469 66 465.866 66 462C66 458.134 69.134 455 73 455ZM204 456H200C196.134 456 193 459.134 193 463C193 466.866 196.134 470 200 470H204C207.866 470 211 466.866 211 463C211 459.134 207.866 456 204 456ZM251.52 295.431L258.5 314.025L240.5 318.567L229 292.331L251.52 295.431ZM219 323.993L199.5 328.914L184.5 286.205L207 289.302L219 323.993ZM130 278.702L160 282.832L179 334.087L156.5 339.766L130 278.702ZM135 345.191L123 348.22V348.222L107.319 353.167L107.594 353.026L64.9608 269.197L101.5 274.778L135 345.191Z" fill="#239F23"/>
<path d="M1632.7 458L1520.45 296.499L1570.18 265.714L1702.32 458H1632.7ZM1413.41 458V126.473H1474.04V458H1413.41ZM1455.57 318.285V265.241H1567.34V318.285H1455.57ZM1575.86 299.341L1519.5 291.763L1632.7 126.473H1698.05L1575.86 299.341ZM1846.96 461.315C1821.07 461.315 1798.02 455.79 1777.81 444.739C1757.61 433.372 1741.66 417.901 1729.98 398.325C1718.3 378.749 1712.45 356.49 1712.45 331.546C1712.45 306.287 1718.3 284.027 1729.98 264.767C1741.66 245.191 1757.61 229.878 1777.81 218.827C1798.02 207.776 1821.07 202.25 1846.96 202.25C1873.17 202.25 1896.37 207.776 1916.58 218.827C1937.1 229.878 1953.05 245.033 1964.42 264.293C1976.1 283.554 1981.94 305.971 1981.94 331.546C1981.94 356.49 1976.1 378.749 1964.42 398.325C1953.05 417.901 1937.1 433.372 1916.58 444.739C1896.37 455.79 1873.17 461.315 1846.96 461.315ZM1846.96 410.639C1861.48 410.639 1874.43 407.482 1885.8 401.167C1897.16 394.852 1906 385.695 1912.32 373.697C1918.95 361.699 1922.26 347.649 1922.26 331.546C1922.26 315.128 1918.95 301.077 1912.32 289.395C1906 277.397 1897.16 268.24 1885.8 261.925C1874.43 255.611 1861.64 252.453 1847.43 252.453C1832.91 252.453 1819.96 255.611 1808.6 261.925C1797.55 268.24 1788.71 277.397 1782.08 289.395C1775.44 301.077 1772.13 315.128 1772.13 331.546C1772.13 347.649 1775.44 361.699 1782.08 373.697C1788.71 385.695 1797.55 394.852 1808.6 401.167C1819.96 407.482 1832.75 410.639 1846.96 410.639ZM2153.14 461.315C2127.25 461.315 2104.2 455.79 2083.99 444.739C2063.79 433.372 2047.84 417.901 2036.16 398.325C2024.48 378.749 2018.64 356.49 2018.64 331.546C2018.64 306.287 2024.48 284.027 2036.16 264.767C2047.84 245.191 2063.79 229.878 2083.99 218.827C2104.2 207.776 2127.25 202.25 2153.14 202.25C2179.35 202.25 2202.55 207.776 2222.76 218.827C2243.29 229.878 2259.23 245.033 2270.6 264.293C2282.28 283.554 2288.12 305.971 2288.12 331.546C2288.12 356.49 2282.28 378.749 2270.6 398.325C2259.23 417.901 2243.29 433.372 2222.76 444.739C2202.55 455.79 2179.35 461.315 2153.14 461.315ZM2153.14 410.639C2167.67 410.639 2180.61 407.482 2191.98 401.167C2203.34 394.852 2212.18 385.695 2218.5 373.697C2225.13 361.699 2228.45 347.649 2228.45 331.546C2228.45 315.128 2225.13 301.077 2218.5 289.395C2212.18 277.397 2203.34 268.24 2191.98 261.925C2180.61 255.611 2167.82 252.453 2153.61 252.453C2139.09 252.453 2126.15 255.611 2114.78 261.925C2103.73 268.24 2094.89 277.397 2088.26 289.395C2081.63 301.077 2078.31 315.128 2078.31 331.546C2078.31 347.649 2081.63 361.699 2088.26 373.697C2094.89 385.695 2103.73 394.852 2114.78 401.167C2126.15 407.482 2138.93 410.639 2153.14 410.639ZM2346.6 458V205.092H2589.09V458H2530.36V241.56L2544.1 255.295H2392.07L2405.8 241.56V458H2346.6Z" fill="#60CE60"/>
<path d="M586.916 462.736C561.657 462.736 538.134 458.631 516.348 450.422C494.878 441.897 476.092 430.057 459.989 414.901C444.202 399.43 431.888 381.275 423.047 360.436C414.206 339.597 409.786 316.864 409.786 292.236C409.786 267.609 414.206 244.875 423.047 224.037C431.888 203.198 444.36 185.2 460.462 170.045C476.565 154.574 495.352 142.733 516.822 134.524C538.292 125.999 561.815 121.737 587.39 121.737C614.544 121.737 639.329 126.473 661.747 135.945C684.164 145.101 703.109 158.836 718.58 177.149L678.797 214.564C666.799 201.619 653.38 191.989 638.54 185.674C623.7 179.044 607.597 175.728 590.232 175.728C572.866 175.728 556.921 178.57 542.397 184.253C528.189 189.937 515.717 197.988 504.982 208.407C494.562 218.827 486.353 231.141 480.354 245.349C474.671 259.557 471.829 275.186 471.829 292.236C471.829 309.286 474.671 324.916 480.354 339.124C486.353 353.332 494.562 365.646 504.982 376.065C515.717 386.485 528.189 394.536 542.397 400.22C556.921 405.903 572.866 408.745 590.232 408.745C607.597 408.745 623.7 405.587 638.54 399.272C653.38 392.642 666.799 382.696 678.797 369.435L718.58 407.324C703.109 425.321 684.164 439.056 661.747 448.528C639.329 458 614.386 462.736 586.916 462.736ZM872.122 461.315C846.232 461.315 823.183 455.79 802.975 444.739C782.768 433.372 766.823 417.901 755.14 398.325C743.458 378.749 737.617 356.49 737.617 331.546C737.617 306.287 743.458 284.027 755.14 264.767C766.823 245.191 782.768 229.878 802.975 218.827C823.183 207.776 846.232 202.25 872.122 202.25C898.329 202.25 921.536 207.776 941.743 218.827C962.266 229.878 978.211 245.033 989.578 264.293C1001.26 283.554 1007.1 305.971 1007.1 331.546C1007.1 356.49 1001.26 378.749 989.578 398.325C978.211 417.901 962.266 433.372 941.743 444.739C921.536 455.79 898.329 461.315 872.122 461.315ZM872.122 410.639C886.646 410.639 899.592 407.482 910.958 401.167C922.325 394.852 931.166 385.695 937.48 373.697C944.111 361.699 947.426 347.649 947.426 331.546C947.426 315.128 944.111 301.077 937.48 289.395C931.166 277.397 922.325 268.24 910.958 261.925C899.592 255.611 886.804 252.453 872.596 252.453C858.072 252.453 845.126 255.611 833.76 261.925C822.709 268.24 813.868 277.397 807.238 289.395C800.607 301.077 797.292 315.128 797.292 331.546C797.292 347.649 800.607 361.699 807.238 373.697C813.868 385.695 822.709 394.852 833.76 401.167C845.126 407.482 857.914 410.639 872.122 410.639ZM1065.58 458V205.092H1124.79V407.797H1245.56V205.092H1304.76V458H1065.58ZM1287.71 514.36V456.579L1301.44 458H1245.56V407.797H1343.12V514.36H1287.71Z" fill="#239F23"/>
</svg>
