<svg width="162" height="36" viewBox="0 0 162 36" fill="none" xmlns="http://www.w3.org/2000/svg">
<path d="M5.41622 15.5102L6.39345 15.645L14.7829 16.8022L16.0194 16.9728C16.0194 16.9728 16.3651 15.8967 16.4327 15.3381C16.5992 13.9621 16.3097 12.7022 15.4034 11.9415C15.1231 11.7063 14.5614 11.4136 13.8861 11.0618C12.3777 10.2759 10.3027 9.19478 9.5312 7.79882C9.4919 7.73548 9.45766 7.67785 9.42548 7.62368C9.32213 7.4497 9.23996 7.31139 9.07915 7.13404C8.94017 6.98075 8.85277 6.90198 8.68883 6.77575C8.27156 6.45447 7.94443 6.28783 7.46563 6.20806C6.66206 6.07499 5.89507 6.37612 5.38233 6.9223L5.38298 6.92131C4.02863 7.86402 4.12335 9.11227 4.22178 10.4094C4.25748 10.8799 4.29368 11.3569 4.26137 11.8281C4.22579 12.3473 4.10147 12.9107 3.97662 13.4765C3.84133 14.0896 3.70544 14.7055 3.68115 15.2709L5.41623 15.5075L5.41622 15.5102Z" fill="#E7FFB1"/>
<path d="M8.97823 11.309C8.16438 11.5607 8.3234 12.5119 8.51805 13.1357C8.88601 14.3148 9.98848 16.3519 11.531 15.8989C12.7342 15.5456 13.2876 14.237 12.702 13.1378C12.1243 12.0534 10.2553 10.9141 8.97823 11.309Z" fill="#9A6508"/>
<path d="M6.39345 15.645L5.41622 15.5102C5.41623 15.5093 5.41623 15.5084 5.41623 15.5075L3.68115 15.2709C3.70544 14.7055 3.84133 14.0896 3.97662 13.4765C4.10147 12.9107 4.22579 12.3473 4.26137 11.8281C4.29368 11.3569 4.25748 10.8799 4.22178 10.4094C4.12335 9.11227 4.02863 7.86402 5.38298 6.92131C5.38277 6.92164 5.38255 6.92197 5.38233 6.9223C5.89507 6.37612 6.66206 6.07499 7.46563 6.20806C7.94443 6.28783 8.27156 6.45447 8.68883 6.77575C8.85277 6.90198 8.94017 6.98075 9.07915 7.13404C9.23996 7.31139 9.32213 7.4497 9.42548 7.62368C9.45766 7.67785 9.4919 7.73548 9.5312 7.79882C10.3027 9.19478 12.3777 10.2759 13.8861 11.0618C14.5614 11.4136 15.1231 11.7063 15.4034 11.9415C16.3097 12.7022 16.5992 13.9621 16.4327 15.3381C16.3651 15.8967 16.0194 16.9728 16.0194 16.9728L14.7829 16.8022C14.9645 16.3385 15.8503 13.9418 15.0915 13.1151C14.3212 12.2758 13.3034 11.7568 12.2822 11.2359C11.5073 10.8407 10.7304 10.4445 10.058 9.90654C9.64467 9.57583 9.3241 9.16851 9.00404 8.76182C8.71597 8.39579 8.4283 8.03027 8.07377 7.7216C7.42809 7.15946 6.57898 6.87312 5.97063 7.71122C5.54924 8.29178 5.80907 9.1058 6.02633 9.78647C6.07839 9.94957 6.12801 10.105 6.16522 10.2478C6.4978 11.5235 6.45656 12.9903 6.4177 14.3724C6.40545 14.8079 6.39345 15.235 6.39345 15.645Z" fill="#60CE60"/>
<path d="M5.38298 6.92139C3.53735 8.20606 4.38273 10.0581 4.26137 11.8281C4.18723 12.9099 3.72785 14.1837 3.68115 15.271L5.43617 15.5103C5.43617 14.2086 5.55407 12.7009 5.36703 11.4027C5.22966 10.4493 4.91952 10.0163 4.93094 9.10186C4.94151 8.25471 4.85116 7.71912 5.38298 6.92139Z" fill="#239F23"/>
<path fill-rule="evenodd" clip-rule="evenodd" d="M0.745736 15.4401C0.46569 15.3722 -0.0709062 15.242 0.00779498 15.5133C0.0623255 15.7014 0.761147 15.8469 1.39008 15.9779C1.85366 16.0745 2.27927 16.1631 2.38091 16.2551C2.55337 16.411 2.85881 17.0448 3.18256 17.7166L3.18256 17.7166L3.18263 17.7168C3.30854 17.978 3.43722 18.245 3.56192 18.4919C3.78355 18.9307 4.02937 19.3959 4.27377 19.8585L4.27377 19.8585C5.04247 21.3133 5.79697 22.7412 5.73939 23.2337C5.66352 23.8828 5.25898 24.2486 4.8082 24.6241C4.72702 24.6917 4.64373 24.7604 4.55906 24.8303L4.55881 24.8305C3.76098 25.4886 2.83996 26.2483 2.39514 27.1644C1.84976 28.2876 2.81873 28.2875 3.6652 28.2874L3.94362 28.2918C3.819 28.4344 3.7435 28.621 3.7435 28.8252C3.7435 29.2732 4.10664 29.6363 4.55459 29.6363H4.80416C5.25211 29.6363 5.61525 29.2732 5.61525 28.8252C5.61525 28.6319 5.5476 28.4543 5.43467 28.315L11.8195 28.4144C11.7237 28.5476 11.6672 28.711 11.6672 28.8876C11.6672 29.3356 12.0304 29.6987 12.4783 29.6987H12.7279C13.1759 29.6987 13.539 29.3356 13.539 28.8876C13.539 28.7218 13.4892 28.5675 13.4038 28.4391L14.1629 28.4509C14.1629 28.4509 14.2877 28.4509 14.3501 28.4197C14.7556 28.0141 14.1046 28.0447 14.1046 28.0447L3.3108 27.973L3.26668 27.9713C3.07456 27.9642 2.7176 27.951 2.64333 27.7685C2.56042 27.5646 2.82876 27.2014 2.96473 27.0174L2.96481 27.0172L2.99429 26.9772C3.41186 26.4049 3.97507 25.9084 4.51265 25.4345C4.59026 25.3661 4.66734 25.2981 4.74337 25.2305C6.58349 23.5933 8.74524 22.6841 11.0474 21.892C13.3495 21.0998 17.5985 20.3013 17.5985 20.3013L17.9085 17.8408L0.877522 15.47C0.849133 15.4652 0.802751 15.454 0.745736 15.4401ZM4.55459 28.3885H4.80416C5.04537 28.3885 5.2409 28.584 5.2409 28.8252C5.2409 29.0664 5.04537 29.262 4.80416 29.262H4.55459C4.31339 29.262 4.11785 29.0664 4.11785 28.8252C4.11785 28.584 4.31339 28.3885 4.55459 28.3885ZM12.7279 28.4509H12.4783C12.2371 28.4509 12.0416 28.6464 12.0416 28.8876C12.0416 29.1288 12.2371 29.3244 12.4783 29.3244H12.7279C12.9691 29.3244 13.1646 29.1288 13.1646 28.8876C13.1646 28.6464 12.9691 28.4509 12.7279 28.4509ZM15.6928 18.4325L16.1283 19.5926L15.0052 19.876L14.2877 18.2391L15.6928 18.4325ZM13.6638 20.2145L12.4472 20.5216L11.5113 17.8569L12.9151 18.0501L13.6638 20.2145ZM8.11093 17.3887L9.98268 17.6464L11.1681 20.8443L9.76431 21.1986L8.11093 17.3887ZM8.42289 21.5371L7.67419 21.7261V21.7262L6.6958 22.0347L6.71298 22.026L4.05302 16.7957L6.33277 17.1439L8.42289 21.5371Z" fill="#239F23"/>
<path d="M101.867 29L94.8635 18.9237L97.9662 17.003L106.21 29H101.867ZM88.1854 29V8.31546H91.9677V29H88.1854ZM90.8153 20.2829V16.9734H97.7889V20.2829H90.8153ZM98.3208 19.101L94.8044 18.6282L101.867 8.31546H105.945L98.3208 19.101ZM115.235 29.2068C113.62 29.2068 112.182 28.8621 110.921 28.1726C109.66 27.4634 108.665 26.4982 107.936 25.2768C107.207 24.0554 106.843 22.6666 106.843 21.1103C106.843 19.5344 107.207 18.1455 107.936 16.9439C108.665 15.7225 109.66 14.7671 110.921 14.0776C112.182 13.3881 113.62 13.0434 115.235 13.0434C116.87 13.0434 118.318 13.3881 119.579 14.0776C120.859 14.7671 121.854 15.7126 122.563 16.9143C123.292 18.116 123.657 19.5147 123.657 21.1103C123.657 22.6666 123.292 24.0554 122.563 25.2768C121.854 26.4982 120.859 27.4634 119.579 28.1726C118.318 28.8621 116.87 29.2068 115.235 29.2068ZM115.235 26.0451C116.141 26.0451 116.949 25.8481 117.658 25.4541C118.367 25.0601 118.919 24.4888 119.313 23.7402C119.727 22.9916 119.933 22.115 119.933 21.1103C119.933 20.0859 119.727 19.2093 119.313 18.4804C118.919 17.7318 118.367 17.1606 117.658 16.7666C116.949 16.3726 116.151 16.1756 115.265 16.1756C114.358 16.1756 113.551 16.3726 112.842 16.7666C112.152 17.1606 111.6 17.7318 111.187 18.4804C110.773 19.2093 110.566 20.0859 110.566 21.1103C110.566 22.115 110.773 22.9916 111.187 23.7402C111.6 24.4888 112.152 25.0601 112.842 25.4541C113.551 25.8481 114.349 26.0451 115.235 26.0451ZM134.338 29.2068C132.723 29.2068 131.285 28.8621 130.024 28.1726C128.763 27.4634 127.768 26.4982 127.04 25.2768C126.311 24.0554 125.946 22.6666 125.946 21.1103C125.946 19.5344 126.311 18.1455 127.04 16.9439C127.768 15.7225 128.763 14.7671 130.024 14.0776C131.285 13.3881 132.723 13.0434 134.338 13.0434C135.973 13.0434 137.421 13.3881 138.682 14.0776C139.962 14.7671 140.957 15.7126 141.666 16.9143C142.395 18.116 142.76 19.5147 142.76 21.1103C142.76 22.6666 142.395 24.0554 141.666 25.2768C140.957 26.4982 139.962 27.4634 138.682 28.1726C137.421 28.8621 135.973 29.2068 134.338 29.2068ZM134.338 26.0451C135.244 26.0451 136.052 25.8481 136.761 25.4541C137.47 25.0601 138.022 24.4888 138.416 23.7402C138.83 22.9916 139.037 22.115 139.037 21.1103C139.037 20.0859 138.83 19.2093 138.416 18.4804C138.022 17.7318 137.47 17.1606 136.761 16.7666C136.052 16.3726 135.254 16.1756 134.368 16.1756C133.462 16.1756 132.654 16.3726 131.945 16.7666C131.255 17.1606 130.704 17.7318 130.29 18.4804C129.876 19.2093 129.669 20.0859 129.669 21.1103C129.669 22.115 129.876 22.9916 130.29 23.7402C130.704 24.4888 131.255 25.0601 131.945 25.4541C132.654 25.8481 133.452 26.0451 134.338 26.0451ZM146.409 29V13.2206H161.538V29H157.874V15.4959L158.731 16.3529H149.245L150.102 15.4959V29H146.409Z" fill="#60CE60"/>
<path d="M36.6187 29.2955C35.0428 29.2955 33.5752 29.0394 32.2159 28.5272C30.8763 27.9953 29.7042 27.2566 28.6995 26.311C27.7145 25.3457 26.9462 24.213 26.3947 22.9128C25.8431 21.6127 25.5673 20.1943 25.5673 18.6577C25.5673 17.1212 25.8431 15.7028 26.3947 14.4026C26.9462 13.1025 27.7244 11.9796 28.7291 11.034C29.7337 10.0687 30.9059 9.32999 32.2454 8.8178C33.585 8.28591 35.0526 8.01996 36.6483 8.01996C38.3424 8.01996 39.8889 8.31546 41.2875 8.90645C42.6862 9.47773 43.8682 10.3347 44.8335 11.4772L42.3513 13.8116C41.6027 13.004 40.7655 12.4031 39.8396 12.0091C38.9137 11.5954 37.9091 11.3886 36.8256 11.3886C35.7421 11.3886 34.7473 11.5659 33.8411 11.9205C32.9546 12.2751 32.1765 12.7774 31.5067 13.4275C30.8566 14.0776 30.3444 14.8459 29.9701 15.7323C29.6155 16.6188 29.4382 17.594 29.4382 18.6577C29.4382 19.7215 29.6155 20.6966 29.9701 21.5831C30.3444 22.4696 30.8566 23.2379 31.5067 23.888C32.1765 24.538 32.9546 25.0404 33.8411 25.395C34.7473 25.7496 35.7421 25.9269 36.8256 25.9269C37.9091 25.9269 38.9137 25.7299 39.8396 25.3359C40.7655 24.9222 41.6027 24.3017 42.3513 23.4743L44.8335 25.8382C43.8682 26.9611 42.6862 27.818 41.2875 28.409C39.8889 29 38.3326 29.2955 36.6187 29.2955ZM54.4132 29.2068C52.7978 29.2068 51.3598 28.8621 50.099 28.1726C48.8382 27.4634 47.8434 26.4982 47.1145 25.2768C46.3856 24.0554 46.0212 22.6666 46.0212 21.1103C46.0212 19.5344 46.3856 18.1455 47.1145 16.9439C47.8434 15.7225 48.8382 14.7671 50.099 14.0776C51.3598 13.3881 52.7978 13.0434 54.4132 13.0434C56.0483 13.0434 57.4962 13.3881 58.757 14.0776C60.0374 14.7671 61.0323 15.7126 61.7414 16.9143C62.4703 18.116 62.8348 19.5147 62.8348 21.1103C62.8348 22.6666 62.4703 24.0554 61.7414 25.2768C61.0323 26.4982 60.0374 27.4634 58.757 28.1726C57.4962 28.8621 56.0483 29.2068 54.4132 29.2068ZM54.4132 26.0451C55.3194 26.0451 56.1271 25.8481 56.8363 25.4541C57.5454 25.0601 58.097 24.4888 58.491 23.7402C58.9047 22.9916 59.1116 22.115 59.1116 21.1103C59.1116 20.0859 58.9047 19.2093 58.491 18.4804C58.097 17.7318 57.5454 17.1606 56.8363 16.7666C56.1271 16.3726 55.3292 16.1756 54.4428 16.1756C53.5366 16.1756 52.7289 16.3726 52.0197 16.7666C51.3302 17.1606 50.7786 17.7318 50.365 18.4804C49.9513 19.2093 49.7444 20.0859 49.7444 21.1103C49.7444 22.115 49.9513 22.9916 50.365 23.7402C50.7786 24.4888 51.3302 25.0601 52.0197 25.4541C52.7289 25.8481 53.5267 26.0451 54.4132 26.0451ZM66.4837 29V13.2206H70.1773V25.8678H77.7124V13.2206H81.4061V29H66.4837ZM80.3423 32.5164V28.9114L81.1992 29H77.7124V25.8678H83.7996V32.5164H80.3423Z" fill="#239F23"/>
</svg>
