<svg width="1759" height="280" viewBox="0 0 1759 280" fill="none" xmlns="http://www.w3.org/2000/svg">
<path d="M41.5 88.9075C46.7598 85.8707 53.2402 85.8707 58.5 88.9075L84.8013 104.093C90.0611 107.129 93.3013 112.741 93.3013 118.815V149.185C93.3013 155.259 90.0611 160.871 84.8013 163.907L58.5 179.093C53.2402 182.129 46.7598 182.129 41.5 179.093L15.1987 163.907C9.93891 160.871 6.69873 155.259 6.69873 149.185V118.815C6.69873 112.741 9.93891 107.129 15.1987 104.093L41.5 88.9075Z" fill="url(#paint0_linear_123_1195)"/>
<path d="M181.5 4.90748C186.76 1.87072 193.24 1.87072 198.5 4.90748L224.801 20.0925C230.061 23.1293 233.301 28.7414 233.301 34.815V65.185C233.301 71.2586 230.061 76.8707 224.801 79.9075L198.5 95.0925C193.24 98.1293 186.76 98.1293 181.5 95.0925L155.199 79.9075C149.939 76.8707 146.699 71.2586 146.699 65.185V34.815C146.699 28.7414 149.939 23.1293 155.199 20.0925L181.5 4.90748Z" fill="url(#paint1_linear_123_1195)"/>
<path d="M184.5 167.907C189.76 164.871 196.24 164.871 201.5 167.907L227.801 183.093C233.061 186.129 236.301 191.741 236.301 197.815V228.185C236.301 234.259 233.061 239.871 227.801 242.907L201.5 258.093C196.24 261.129 189.76 261.129 184.5 258.093L158.199 242.907C152.939 239.871 149.699 234.259 149.699 228.185V197.815C149.699 191.741 152.939 186.129 158.199 183.093L184.5 167.907Z" fill="url(#paint2_linear_123_1195)"/>
<path d="M135.5 86.9075C140.76 83.8707 147.24 83.8707 152.5 86.9075L178.801 102.093C184.061 105.129 187.301 110.741 187.301 116.815V147.185C187.301 153.259 184.061 158.871 178.801 161.907L152.5 177.093C147.24 180.129 140.76 180.129 135.5 177.093L109.199 161.907C103.939 158.871 100.699 153.259 100.699 147.185V116.815C100.699 110.741 103.939 105.129 109.199 102.093L135.5 86.9075Z" fill="url(#paint3_linear_123_1195)"/>
<path d="M90.5 168.907C95.7598 165.871 102.24 165.871 107.5 168.907L133.801 184.093C139.061 187.129 142.301 192.741 142.301 198.815V229.185C142.301 235.259 139.061 240.871 133.801 243.907L107.5 259.093C102.24 262.129 95.7598 262.129 90.5 259.093L64.1987 243.907C58.9389 240.871 55.6987 235.259 55.6987 229.185V198.815C55.6987 192.741 58.9389 187.129 64.1987 184.093L90.5 168.907Z" fill="url(#paint4_linear_123_1195)"/>
<path d="M86.5 6.90748C91.7598 3.87072 98.2402 3.87072 103.5 6.90748L129.801 22.0925C135.061 25.1293 138.301 30.7414 138.301 36.815V67.185C138.301 73.2586 135.061 78.8707 129.801 81.9075L103.5 97.0925C98.2402 100.129 91.7598 100.129 86.5 97.0925L60.1987 81.9075C54.9389 78.8707 51.6987 73.2586 51.6987 67.185V36.815C51.6987 30.7414 54.9389 25.1293 60.1987 22.0925L86.5 6.90748Z" fill="url(#paint5_linear_123_1195)"/>
<path d="M1601.49 232.293V23.4996H1759V232.293H1738.42V41.6343H1622.06V232.293H1601.49ZM1387.39 127.896C1387.39 139.169 1389.34 150.197 1393.02 160.735C1396.69 171.027 1402.08 180.34 1408.94 188.672C1415.8 196.759 1423.89 203.131 1433.44 208.032C1442.99 212.688 1453.53 215.139 1464.79 215.139C1476.8 215.139 1487.33 212.688 1496.89 207.787C1506.44 202.64 1514.52 196.024 1521.38 187.692C1528.24 179.36 1533.39 169.802 1537.06 159.509C1540.49 149.217 1542.45 138.434 1542.45 127.651C1542.45 116.378 1540.49 105.351 1536.81 95.058C1533.14 84.7653 1527.75 75.4529 1520.65 67.1207C1513.79 58.7886 1505.7 52.4171 1496.15 47.7609C1486.84 43.1047 1476.31 40.654 1465.04 40.654C1453.28 40.654 1442.5 43.1046 1432.95 48.0059C1423.64 52.9071 1415.31 59.5239 1408.45 68.1011C1401.84 76.4332 1396.69 85.7456 1392.77 96.0383C1389.1 106.576 1387.39 117.114 1387.39 127.896ZM1464.79 233.763C1450.1 233.763 1436.87 230.823 1424.86 224.941C1412.86 219.06 1402.57 211.218 1394 201.17C1385.43 190.877 1378.81 179.605 1373.91 167.106C1369.26 154.363 1366.81 141.375 1366.81 127.896C1366.81 113.928 1369.26 100.694 1374.16 88.1962C1379.06 75.453 1385.92 64.1801 1394.73 54.3776C1403.8 44.33 1414.33 36.4879 1426.09 30.8515C1438.09 24.97 1451.08 22.0293 1464.79 22.0293C1479.49 22.0293 1492.72 24.9701 1504.72 31.0966C1516.73 37.2232 1526.77 45.3103 1535.35 55.6029C1543.92 65.8956 1550.53 77.1683 1555.43 89.6665C1560.09 102.165 1562.54 115.153 1562.54 128.141C1562.54 142.11 1560.09 155.343 1555.19 168.087C1550.29 180.585 1543.43 191.858 1534.61 201.905C1525.79 211.708 1515.5 219.55 1503.5 225.186C1491.5 230.823 1478.51 233.763 1464.79 233.763ZM1166.67 127.896C1166.67 139.169 1168.63 150.197 1172.3 160.735C1175.98 171.027 1181.37 180.34 1188.23 188.672C1195.09 196.759 1203.17 203.131 1212.72 208.032C1222.28 212.688 1232.81 215.139 1244.08 215.139C1256.08 215.139 1266.62 212.688 1276.17 207.787C1285.72 202.64 1293.81 196.024 1300.67 187.692C1307.53 179.36 1312.67 169.802 1316.34 159.509C1319.77 149.217 1321.73 138.434 1321.73 127.651C1321.73 116.378 1319.77 105.351 1316.1 95.058C1312.43 84.7653 1307.04 75.4529 1299.93 67.1207C1293.07 58.7886 1284.99 52.4171 1275.44 47.7609C1266.13 43.1047 1255.59 40.654 1244.32 40.654C1232.57 40.654 1221.79 43.1046 1212.23 48.0059C1202.92 52.9071 1194.6 59.5239 1187.74 68.1011C1181.12 76.4332 1175.98 85.7456 1172.06 96.0383C1168.38 106.576 1166.67 117.114 1166.67 127.896ZM1243.83 233.763C1229.14 233.763 1215.91 230.823 1203.9 224.941C1191.9 219.06 1181.61 211.218 1173.04 201.17C1164.47 190.877 1157.85 179.605 1152.95 167.106C1148.3 154.363 1145.85 141.375 1145.85 127.896C1145.85 113.928 1148.3 100.694 1153.2 88.1962C1158.1 75.453 1164.95 64.1801 1173.77 54.3776C1182.84 44.33 1193.37 36.4879 1205.13 30.8515C1217.13 24.97 1230.12 22.0293 1243.83 22.0293C1258.53 22.0293 1271.76 24.9701 1283.76 31.0966C1295.77 37.2232 1305.81 45.3103 1314.38 55.6029C1322.96 65.8956 1329.57 77.1683 1334.47 89.6665C1339.13 102.165 1341.58 115.153 1341.58 128.141C1341.58 142.11 1339.13 155.343 1334.23 168.087C1329.33 180.585 1322.47 191.858 1313.65 201.905C1304.83 211.708 1294.54 219.55 1282.54 225.186C1270.78 230.823 1257.8 233.763 1243.83 233.763ZM985.149 232.293V23.4996H1005.73V116.378H1037.08L1108.86 23.4996H1132.62L1054.23 124.71L1137.52 232.293H1112.29L1037.57 135.248H1005.48V232.293H985.149ZM899.901 272.238V232.293H747.286V23.4996H804.608V182.3H863.156V23.4996H920.478V182.3H949.874V272.238H899.901ZM569.44 128.141C569.44 135.248 570.42 142.11 572.38 148.727C574.339 155.098 577.279 160.98 581.199 166.371C585.118 171.517 590.017 175.684 595.897 178.624C602.021 181.565 609.125 183.036 617.454 183.036C625.783 183.036 632.887 181.565 639.011 178.379C645.135 175.193 650.034 171.027 653.709 165.636C657.628 160.245 660.568 154.118 662.283 147.746C664.242 141.13 665.222 134.268 665.222 127.406C665.222 120.299 664.242 113.683 662.283 107.066C660.323 100.694 657.383 94.8129 653.464 89.6665C649.544 84.2752 644.645 80.3542 638.521 77.4134C632.397 74.4727 625.293 73.0023 617.454 73.0023C609.125 73.0023 602.021 74.4728 595.897 77.6586C590.017 80.8444 585.118 85.0103 581.199 90.4017C577.279 95.548 574.339 101.43 572.38 108.046C570.175 114.663 569.44 121.28 569.44 128.141ZM616.719 234.009C600.796 234.009 586.343 231.068 573.605 225.186C560.621 219.06 549.598 210.973 540.044 201.17C530.735 190.877 523.631 179.605 518.487 167.106C513.588 154.363 511.138 141.13 511.138 127.651C511.138 113.683 513.833 100.449 518.977 87.9511C524.366 75.4529 531.715 64.1801 541.024 54.3776C550.578 44.33 561.846 36.4879 574.829 30.8515C588.058 25.2151 602.266 22.2743 617.699 22.2743C633.622 22.2743 648.075 25.2151 660.813 31.3416C673.796 37.2232 684.82 45.3102 694.128 55.3578C703.437 65.6504 710.296 76.9233 715.195 89.6665C720.34 102.165 722.79 115.153 722.79 128.386C722.79 142.11 720.095 155.343 714.951 167.842C709.806 180.34 702.457 191.613 692.904 201.66C683.595 211.463 672.326 219.305 659.343 225.186C646.605 231.313 632.397 234.009 616.719 234.009ZM311 126.181C311 113.438 313.45 100.939 318.104 88.9314C323.003 76.6783 330.107 65.4053 339.171 55.3578C348.48 45.3102 359.503 37.4682 372.732 31.5867C385.96 25.4601 401.148 22.5195 417.806 22.5195C437.893 22.5195 455.286 26.6854 470.229 35.2626C485.172 43.5947 496.195 54.3775 503.544 68.1011L459.695 99.2241C457.245 92.3623 453.326 86.9709 448.427 83.295C443.772 79.619 438.628 76.9233 432.749 75.6979C427.359 74.2276 421.97 73.2473 416.581 73.2473C408.252 73.2473 401.148 74.9628 395.024 78.1486C389.144 81.3344 384.245 85.5005 380.326 90.8919C376.651 96.2832 373.712 102.165 371.752 108.536C370.037 114.908 369.057 121.525 369.057 127.896C369.057 135.248 370.037 142.11 372.242 148.727C374.446 155.343 377.631 161.47 381.55 166.616C385.715 171.763 390.614 175.684 396.493 178.624C402.618 181.565 409.232 183.036 416.826 183.036C422.215 183.036 427.604 182.3 432.994 180.585C438.383 178.869 443.527 176.174 447.937 172.253C452.346 168.332 455.776 163.431 458.225 157.304L505.014 185.241C500.849 195.534 493.99 204.111 484.437 211.463C474.883 218.815 463.859 224.206 451.856 228.127C439.608 231.803 427.604 233.763 415.601 233.763C400.168 233.763 385.96 230.823 372.977 224.696C360.238 218.325 349.215 210.237 339.661 199.945C330.352 189.652 323.248 177.889 318.104 165.146C313.695 152.648 311 139.414 311 126.181Z" fill="#FF6400"/>
<path d="M899.901 271.993V232.048H747.286V23.2546H804.608V182.055H863.156V23.2546H920.478V182.055H949.874V271.993H899.901ZM569.44 127.896C569.44 135.003 570.42 141.865 572.38 148.482C574.339 154.853 577.279 160.735 581.199 166.126C585.118 171.272 590.017 175.439 595.897 178.379C602.021 181.32 609.125 182.791 617.454 182.791C625.783 182.791 632.887 181.32 639.011 178.134C645.135 174.948 650.034 170.782 653.709 165.391C657.628 160 660.568 153.873 662.283 147.501C664.242 140.885 665.222 134.023 665.222 127.161C665.222 120.054 664.242 113.438 662.283 106.821C660.323 100.449 657.383 94.5679 653.464 89.4215C649.544 84.0302 644.645 80.1092 638.521 77.1684C632.397 74.2277 625.293 72.7573 617.454 72.7573C609.125 72.7573 602.021 74.2277 595.897 77.4136C590.017 80.5994 585.118 84.7653 581.199 90.1567C577.279 95.303 574.339 101.185 572.38 107.801C570.175 114.418 569.44 121.035 569.44 127.896ZM616.719 233.764C600.796 233.764 586.343 230.823 573.605 224.941C560.621 218.815 549.598 210.728 540.044 200.925C530.735 190.632 523.631 179.36 518.487 166.861C513.588 154.118 511.138 140.885 511.138 127.406C511.138 113.438 513.833 100.204 518.977 87.7061C524.366 75.2079 531.715 63.9351 541.024 54.1326C550.578 44.085 561.846 36.2429 574.829 30.6065C588.058 24.9701 602.266 22.0293 617.699 22.0293C633.622 22.0293 648.075 24.9701 660.813 31.0966C673.796 36.9782 684.82 45.0652 694.128 55.1128C703.437 65.4054 710.296 76.6783 715.195 89.4215C720.34 101.92 722.79 114.908 722.79 128.141C722.79 141.865 720.095 155.098 714.951 167.597C709.806 180.095 702.457 191.368 692.904 201.415C683.595 211.218 672.326 219.06 659.343 224.941C646.605 231.068 632.397 233.764 616.719 233.764ZM311 125.936C311 113.193 313.45 100.694 318.104 88.6864C323.003 76.4333 330.107 65.1603 339.171 55.1128C348.48 45.0652 359.503 37.2232 372.732 31.3417C385.96 25.2151 401.148 22.2744 417.806 22.2744C437.893 22.2744 455.286 26.4404 470.229 35.0176C485.172 43.3497 496.195 54.1325 503.544 67.8561L459.695 98.9791C457.245 92.1173 453.326 86.7259 448.427 83.05C443.772 79.374 438.628 76.6783 432.749 75.4529C427.359 73.9826 421.97 73.0023 416.581 73.0023C408.252 73.0023 401.148 74.7178 395.024 77.9036C389.144 81.0894 384.245 85.2555 380.326 90.6469C376.651 96.0382 373.712 101.92 371.752 108.291C370.037 114.663 369.057 121.28 369.057 127.651C369.057 135.003 370.037 141.865 372.242 148.482C374.446 155.098 377.631 161.225 381.55 166.371C385.715 171.518 390.614 175.439 396.493 178.379C402.618 181.32 409.232 182.791 416.826 182.791C422.215 182.791 427.604 182.055 432.994 180.34C438.383 178.624 443.527 175.929 447.937 172.008C452.346 168.087 455.776 163.186 458.225 157.059L505.014 184.996C500.849 195.289 493.99 203.866 484.437 211.218C474.883 218.57 463.859 223.961 451.856 227.882C439.608 231.558 427.604 233.518 415.601 233.518C400.168 233.518 385.96 230.578 372.977 224.451C360.238 218.08 349.215 209.992 339.661 199.7C330.352 189.407 323.248 177.644 318.104 164.901C313.695 152.403 311 139.169 311 125.936Z" fill="#FF6400"/>
<defs>
<linearGradient id="paint0_linear_123_1195" x1="50" y1="87.5" x2="59" y2="156" gradientUnits="userSpaceOnUse">
<stop stop-color="#FF2E51"/>
<stop offset="1" stop-color="#FF5635"/>
</linearGradient>
<linearGradient id="paint1_linear_123_1195" x1="216.5" y1="5" x2="180.5" y2="88" gradientUnits="userSpaceOnUse">
<stop stop-color="#FF2359"/>
<stop offset="1" stop-color="#FF473F"/>
</linearGradient>
<linearGradient id="paint2_linear_123_1195" x1="168" y1="175" x2="214" y2="245.5" gradientUnits="userSpaceOnUse">
<stop stop-color="#FE5536"/>
<stop offset="0.647384" stop-color="#FF761E"/>
</linearGradient>
<linearGradient id="paint3_linear_123_1195" x1="132.5" y1="91" x2="161.5" y2="172" gradientUnits="userSpaceOnUse">
<stop stop-color="#FE3F47"/>
<stop offset="1" stop-color="#FF642C"/>
</linearGradient>
<linearGradient id="paint4_linear_123_1195" x1="99" y1="164" x2="117" y2="252.5" gradientUnits="userSpaceOnUse">
<stop stop-color="#FE2E50"/>
<stop offset="0.0001" stop-color="#FF642B"/>
<stop offset="0.975574" stop-color="#FF6434"/>
</linearGradient>
<linearGradient id="paint5_linear_123_1195" x1="62" y1="-30.5" x2="95" y2="102" gradientUnits="userSpaceOnUse">
<stop stop-color="#FF275E"/>
<stop offset="1" stop-color="#FE4542"/>
</linearGradient>
</defs>
</svg>
