<svg width="260" height="260" viewBox="0 0 260 260" fill="none" xmlns="http://www.w3.org/2000/svg">
<path d="M260 0H0V260H260V0Z" fill="white"/>
<path d="M86.6667 15.7576H78.7879V23.6364H86.6667V15.7576Z" fill="#239F23"/>
<path d="M102.424 15.7576H94.5454V23.6364H102.424V15.7576Z" fill="#239F23"/>
<path d="M126.061 15.7576H118.182V23.6364H126.061V15.7576Z" fill="#239F23"/>
<path d="M133.939 15.7576H126.061V23.6364H133.939V15.7576Z" fill="#239F23"/>
<path d="M141.818 15.7576H133.939V23.6364H141.818V15.7576Z" fill="#239F23"/>
<path d="M157.576 15.7576H149.697V23.6364H157.576V15.7576Z" fill="#239F23"/>
<path d="M181.212 15.7576H173.333V23.6364H181.212V15.7576Z" fill="#239F23"/>
<path d="M86.6667 23.6364H78.7879V31.5152H86.6667V23.6364Z" fill="#239F23"/>
<path d="M102.424 23.6364H94.5454V31.5152H102.424V23.6364Z" fill="#239F23"/>
<path d="M110.303 23.6364H102.424V31.5152H110.303V23.6364Z" fill="#239F23"/>
<path d="M118.182 23.6364H110.303V31.5152H118.182L118.182 23.6364Z" fill="#239F23"/>
<path d="M126.061 23.6364H118.182L118.182 31.5152H126.061V23.6364Z" fill="#239F23"/>
<path d="M149.697 23.6364H141.818V31.5152H149.697L149.697 23.6364Z" fill="#239F23"/>
<path d="M181.212 23.6364H173.333V31.5152H181.212V23.6364Z" fill="#239F23"/>
<path d="M102.424 31.5152H94.5454V39.3939H102.424V31.5152Z" fill="#239F23"/>
<path d="M149.697 31.5152H141.818V39.3939H149.697V31.5152Z" fill="#239F23"/>
<path d="M86.6667 39.3939H78.7879V47.2727H86.6667V39.3939Z" fill="#239F23"/>
<path d="M94.5454 39.3939H86.6667V47.2727H94.5455L94.5454 39.3939Z" fill="#239F23"/>
<path d="M102.424 39.3939H94.5454L94.5455 47.2727H102.424V39.3939Z" fill="#239F23"/>
<path d="M118.182 39.3939H110.303V47.2727H118.182V39.3939Z" fill="#239F23"/>
<path d="M133.939 39.3939H126.061V47.2727H133.939V39.3939Z" fill="#239F23"/>
<path d="M141.818 39.3939H133.939V47.2727H141.818V39.3939Z" fill="#239F23"/>
<path d="M181.212 39.3939H173.333V47.2727H181.212V39.3939Z" fill="#239F23"/>
<path d="M102.424 47.2727H94.5455L94.5454 55.1515H102.424V47.2727Z" fill="#239F23"/>
<path d="M110.303 47.2727H102.424V55.1515H110.303V47.2727Z" fill="#239F23"/>
<path d="M118.182 47.2727H110.303V55.1515H118.182V47.2727Z" fill="#239F23"/>
<path d="M133.939 47.2727H126.061V55.1515H133.939V47.2727Z" fill="#239F23"/>
<path d="M149.697 47.2727H141.818V55.1515H149.697V47.2727Z" fill="#239F23"/>
<path d="M157.576 47.2727H149.697V55.1515H157.576V47.2727Z" fill="#239F23"/>
<path d="M165.455 47.2727H157.576V55.1515H165.455V47.2727Z" fill="#239F23"/>
<path d="M173.333 47.2727H165.455V55.1515H173.333L173.333 47.2727Z" fill="#239F23"/>
<path d="M94.5454 55.1515H86.6667V63.0303H94.5455L94.5454 55.1515Z" fill="#239F23"/>
<path d="M102.424 55.1515H94.5454L94.5455 63.0303H102.424V55.1515Z" fill="#239F23"/>
<path d="M110.303 55.1515H102.424V63.0303H110.303V55.1515Z" fill="#239F23"/>
<path d="M118.182 55.1515H110.303V63.0303H118.182V55.1515Z" fill="#239F23"/>
<path d="M126.061 55.1515H118.182V63.0303H126.061V55.1515Z" fill="#239F23"/>
<path d="M141.818 55.1515H133.939V63.0303H141.818V55.1515Z" fill="#239F23"/>
<path d="M149.697 55.1515H141.818V63.0303H149.697V55.1515Z" fill="#239F23"/>
<path d="M157.576 55.1515H149.697V63.0303H157.576V55.1515Z" fill="#239F23"/>
<path d="M173.333 55.1515H165.455L165.455 63.0303H173.333V55.1515Z" fill="#239F23"/>
<path d="M86.6667 63.0303L78.7879 63.0303V70.9091H86.6667L86.6667 63.0303Z" fill="#239F23"/>
<path d="M102.424 63.0303H94.5455L94.5454 70.9091H102.424V63.0303Z" fill="#239F23"/>
<path d="M118.182 63.0303H110.303V70.9091H118.182V63.0303Z" fill="#239F23"/>
<path d="M133.939 63.0303H126.061V70.9091H133.939V63.0303Z" fill="#239F23"/>
<path d="M149.697 63.0303H141.818V70.9091H149.697V63.0303Z" fill="#239F23"/>
<path d="M165.455 63.0303H157.576L157.576 70.9091H165.455L165.455 63.0303Z" fill="#239F23"/>
<path d="M181.212 63.0303L173.333 63.0303L173.333 70.9091H181.212V63.0303Z" fill="#239F23"/>
<path d="M86.6667 70.9091H78.7879V78.7879H86.6667V70.9091Z" fill="#239F23"/>
<path d="M94.5454 70.9091H86.6667V78.7879H94.5455L94.5454 70.9091Z" fill="#239F23"/>
<path d="M118.182 70.9091H110.303V78.7879H118.182V70.9091Z" fill="#239F23"/>
<path d="M141.818 70.9091H133.939V78.7879H141.818V70.9091Z" fill="#239F23"/>
<path d="M149.697 70.9091H141.818V78.7879H149.697V70.9091Z" fill="#239F23"/>
<path d="M157.576 70.9091H149.697V78.7879H157.576L157.576 70.9091Z" fill="#239F23"/>
<path d="M23.6364 78.7879H15.7576V86.6667H23.6364V78.7879Z" fill="#239F23"/>
<path d="M39.3939 78.7879H31.5152V86.6667H39.3939V78.7879Z" fill="#239F23"/>
<path d="M47.2727 78.7879H39.3939V86.6667H47.2727V78.7879Z" fill="#239F23"/>
<path d="M63.0303 78.7879H55.1515V86.6667H63.0303V78.7879Z" fill="#239F23"/>
<path d="M70.9091 78.7879H63.0303V86.6667H70.9091V78.7879Z" fill="#239F23"/>
<path d="M78.7879 78.7879H70.9091V86.6667H78.7879V78.7879Z" fill="#239F23"/>
<path d="M94.5455 78.7879H86.6667L86.6667 86.6667H94.5455V78.7879Z" fill="#239F23"/>
<path d="M102.424 78.7879H94.5455V86.6667H102.424V78.7879Z" fill="#239F23"/>
<path d="M110.303 78.7879H102.424V86.6667H110.303V78.7879Z" fill="#239F23"/>
<path d="M126.061 78.7879H118.182L118.182 86.6667H126.061V78.7879Z" fill="#239F23"/>
<path d="M141.818 78.7879H133.939V86.6667H141.818V78.7879Z" fill="#239F23"/>
<path d="M157.576 78.7879H149.697L149.697 86.6667H157.576V78.7879Z" fill="#239F23"/>
<path d="M173.333 78.7879H165.455V86.6667H173.333V78.7879Z" fill="#239F23"/>
<path d="M196.97 78.7879H189.091V86.6667H196.97V78.7879Z" fill="#239F23"/>
<path d="M220.606 78.7879H212.727V86.6667H220.606V78.7879Z" fill="#239F23"/>
<path d="M236.364 78.7879H228.485V86.6667H236.364V78.7879Z" fill="#239F23"/>
<path d="M244.242 78.7879H236.364V86.6667H244.242V78.7879Z" fill="#239F23"/>
<path d="M39.3939 86.6667H31.5152V94.5455H39.3939V86.6667Z" fill="#239F23"/>
<path d="M47.2727 86.6667H39.3939V94.5455H47.2727V86.6667Z" fill="#239F23"/>
<path d="M55.1515 86.6667H47.2727V94.5455H55.1515V86.6667Z" fill="#239F23"/>
<path d="M102.424 86.6667H94.5455L94.5454 94.5455H102.424V86.6667Z" fill="#239F23"/>
<path d="M118.182 86.6667H110.303V94.5455H118.182L118.182 86.6667Z" fill="#239F23"/>
<path d="M126.061 86.6667H118.182L118.182 94.5455H126.061V86.6667Z" fill="#239F23"/>
<path d="M133.939 86.6667H126.061V94.5455H133.939V86.6667Z" fill="#239F23"/>
<path d="M141.818 86.6667H133.939V94.5455H141.818V86.6667Z" fill="#239F23"/>
<path d="M181.212 86.6667L173.333 86.6667L173.333 94.5455H181.212V86.6667Z" fill="#239F23"/>
<path d="M189.091 86.6667L181.212 86.6667V94.5455H189.091V86.6667Z" fill="#239F23"/>
<path d="M196.97 86.6667H189.091V94.5455H196.97V86.6667Z" fill="#239F23"/>
<path d="M212.727 86.6667L204.848 86.6667V94.5455H212.727V86.6667Z" fill="#239F23"/>
<path d="M244.242 86.6667H236.364V94.5455H244.242V86.6667Z" fill="#239F23"/>
<path d="M23.6364 94.5454H15.7576V102.424H23.6364V94.5454Z" fill="#239F23"/>
<path d="M31.5152 94.5455L23.6364 94.5454V102.424H31.5152V94.5455Z" fill="#239F23"/>
<path d="M39.3939 94.5455H31.5152V102.424H39.3939V94.5455Z" fill="#239F23"/>
<path d="M47.2727 94.5455H39.3939V102.424H47.2727V94.5455Z" fill="#239F23"/>
<path d="M55.1515 94.5455H47.2727V102.424H55.1515V94.5455Z" fill="#239F23"/>
<path d="M70.9091 94.5454H63.0303V102.424H70.9091V94.5454Z" fill="#239F23"/>
<path d="M86.6667 94.5454H78.7879V102.424H86.6667V94.5454Z" fill="#239F23"/>
<path d="M94.5454 94.5455L86.6667 94.5454V102.424H94.5455L94.5454 94.5455Z" fill="#239F23"/>
<path d="M102.424 94.5455H94.5454L94.5455 102.424H102.424V94.5455Z" fill="#239F23"/>
<path d="M110.303 94.5455H102.424V102.424H110.303V94.5455Z" fill="#239F23"/>
<path d="M126.061 94.5455H118.182L118.182 102.424H126.061V94.5455Z" fill="#239F23"/>
<path d="M149.697 94.5454L141.818 94.5455V102.424H149.697V94.5454Z" fill="#239F23"/>
<path d="M157.576 94.5454H149.697V102.424H157.576V94.5454Z" fill="#239F23"/>
<path d="M165.455 94.5454H157.576V102.424H165.455V94.5454Z" fill="#239F23"/>
<path d="M181.212 94.5455H173.333V102.424H181.212V94.5455Z" fill="#239F23"/>
<path d="M189.091 94.5455H181.212V102.424H189.091V94.5455Z" fill="#239F23"/>
<path d="M196.97 94.5455H189.091V102.424H196.97V94.5455Z" fill="#239F23"/>
<path d="M228.485 94.5454H220.606V102.424H228.485V94.5454Z" fill="#239F23"/>
<path d="M236.364 94.5455L228.485 94.5454V102.424H236.364V94.5455Z" fill="#239F23"/>
<path d="M23.6364 102.424H15.7576V110.303H23.6364V102.424Z" fill="#239F23"/>
<path d="M31.5152 102.424H23.6364V110.303H31.5152V102.424Z" fill="#239F23"/>
<path d="M55.1515 102.424H47.2727V110.303H55.1515V102.424Z" fill="#239F23"/>
<path d="M102.424 102.424H94.5455L94.5454 110.303H102.424V102.424Z" fill="#239F23"/>
<path d="M118.182 102.424H110.303V110.303H118.182L118.182 102.424Z" fill="#239F23"/>
<path d="M149.697 102.424H141.818V110.303H149.697V102.424Z" fill="#239F23"/>
<path d="M181.212 102.424H173.333V110.303H181.212V102.424Z" fill="#239F23"/>
<path d="M189.091 102.424H181.212V110.303H189.091V102.424Z" fill="#239F23"/>
<path d="M204.848 102.424H196.97V110.303H204.848V102.424Z" fill="#239F23"/>
<path d="M244.242 102.424H236.364V110.303H244.242V102.424Z" fill="#239F23"/>
<path d="M55.1515 110.303H47.2727V118.182H55.1515V110.303Z" fill="#239F23"/>
<path d="M63.0303 110.303H55.1515V118.182H63.0303V110.303Z" fill="#239F23"/>
<path d="M70.9091 110.303H63.0303V118.182H70.9091V110.303Z" fill="#239F23"/>
<path d="M78.7879 110.303H70.9091V118.182H78.7879V110.303Z" fill="#239F23"/>
<path d="M110.303 110.303H102.424V118.182H110.303V110.303Z" fill="#239F23"/>
<path d="M118.182 110.303H110.303V118.182H118.182V110.303Z" fill="#239F23"/>
<path d="M133.939 110.303H126.061V118.182H133.939V110.303Z" fill="#239F23"/>
<path d="M141.818 110.303H133.939V118.182H141.818V110.303Z" fill="#239F23"/>
<path d="M157.576 110.303H149.697L149.697 118.182H157.576V110.303Z" fill="#239F23"/>
<path d="M165.455 110.303H157.576V118.182H165.455V110.303Z" fill="#239F23"/>
<path d="M181.212 110.303H173.333V118.182H181.212V110.303Z" fill="#239F23"/>
<path d="M189.091 110.303H181.212V118.182H189.091V110.303Z" fill="#239F23"/>
<path d="M220.606 110.303H212.727V118.182H220.606V110.303Z" fill="#239F23"/>
<path d="M228.485 110.303H220.606V118.182H228.485V110.303Z" fill="#239F23"/>
<path d="M23.6364 118.182H15.7576V126.061H23.6364V118.182Z" fill="#239F23"/>
<path d="M31.5152 118.182H23.6364V126.061H31.5152V118.182Z" fill="#239F23"/>
<path d="M39.3939 118.182H31.5152V126.061H39.3939V118.182Z" fill="#239F23"/>
<path d="M47.2727 118.182L39.3939 118.182V126.061H47.2727V118.182Z" fill="#239F23"/>
<path d="M78.7879 118.182H70.9091V126.061H78.7879V118.182Z" fill="#239F23"/>
<path d="M86.6667 118.182L78.7879 118.182V126.061H86.6667V118.182Z" fill="#239F23"/>
<path d="M94.5455 118.182H86.6667V126.061H94.5455V118.182Z" fill="#239F23"/>
<path d="M102.424 118.182L94.5455 118.182V126.061H102.424V118.182Z" fill="#239F23"/>
<path d="M118.182 118.182H110.303V126.061H118.182V118.182Z" fill="#239F23"/>
<path d="M133.939 118.182H126.061V126.061H133.939V118.182Z" fill="#239F23"/>
<path d="M149.697 118.182H141.818V126.061H149.697L149.697 118.182Z" fill="#239F23"/>
<path d="M157.576 118.182H149.697L149.697 126.061H157.576V118.182Z" fill="#239F23"/>
<path d="M165.455 118.182H157.576V126.061H165.455V118.182Z" fill="#239F23"/>
<path d="M173.333 118.182H165.455V126.061H173.333L173.333 118.182Z" fill="#239F23"/>
<path d="M196.97 118.182L189.091 118.182V126.061H196.97V118.182Z" fill="#239F23"/>
<path d="M228.485 118.182H220.606L220.606 126.061H228.485V118.182Z" fill="#239F23"/>
<path d="M236.364 118.182L228.485 118.182V126.061H236.364V118.182Z" fill="#239F23"/>
<path d="M244.242 118.182H236.364V126.061H244.242V118.182Z" fill="#239F23"/>
<path d="M23.6364 126.061H15.7576V133.939H23.6364V126.061Z" fill="#239F23"/>
<path d="M31.5152 126.061H23.6364V133.939H31.5152V126.061Z" fill="#239F23"/>
<path d="M47.2727 126.061H39.3939V133.939H47.2727V126.061Z" fill="#239F23"/>
<path d="M55.1515 126.061H47.2727V133.939H55.1515V126.061Z" fill="#239F23"/>
<path d="M63.0303 126.061H55.1515V133.939H63.0303V126.061Z" fill="#239F23"/>
<path d="M70.9091 126.061H63.0303V133.939H70.9091V126.061Z" fill="#239F23"/>
<path d="M94.5455 126.061H86.6667L86.6667 133.939H94.5455V126.061Z" fill="#239F23"/>
<path d="M110.303 126.061H102.424V133.939H110.303V126.061Z" fill="#239F23"/>
<path d="M126.061 126.061H118.182L118.182 133.939H126.061V126.061Z" fill="#239F23"/>
<path d="M141.818 126.061H133.939V133.939H141.818V126.061Z" fill="#239F23"/>
<path d="M149.697 126.061H141.818V133.939H149.697V126.061Z" fill="#239F23"/>
<path d="M173.333 126.061H165.455L165.455 133.939H173.333V126.061Z" fill="#239F23"/>
<path d="M181.212 126.061H173.333V133.939H181.212V126.061Z" fill="#239F23"/>
<path d="M204.848 126.061H196.97V133.939H204.848V126.061Z" fill="#239F23"/>
<path d="M228.485 126.061H220.606V133.939H228.485V126.061Z" fill="#239F23"/>
<path d="M236.364 126.061H228.485V133.939H236.364V126.061Z" fill="#239F23"/>
<path d="M244.242 126.061H236.364V133.939H244.242V126.061Z" fill="#239F23"/>
<path d="M23.6364 133.939H15.7576V141.818H23.6364V133.939Z" fill="#239F23"/>
<path d="M31.5152 133.939H23.6364V141.818H31.5152V133.939Z" fill="#239F23"/>
<path d="M47.2727 133.939H39.3939V141.818H47.2727V133.939Z" fill="#239F23"/>
<path d="M63.0303 133.939H55.1515V141.818H63.0303V133.939Z" fill="#239F23"/>
<path d="M94.5455 133.939H86.6667V141.818H94.5455V133.939Z" fill="#239F23"/>
<path d="M118.182 133.939H110.303V141.818H118.182L118.182 133.939Z" fill="#239F23"/>
<path d="M133.939 133.939H126.061V141.818H133.939V133.939Z" fill="#239F23"/>
<path d="M149.697 133.939H141.818V141.818H149.697V133.939Z" fill="#239F23"/>
<path d="M173.333 133.939H165.455V141.818H173.333V133.939Z" fill="#239F23"/>
<path d="M196.97 133.939H189.091V141.818H196.97V133.939Z" fill="#239F23"/>
<path d="M204.848 133.939H196.97V141.818H204.848V133.939Z" fill="#239F23"/>
<path d="M236.364 133.939H228.485L228.485 141.818H236.364V133.939Z" fill="#239F23"/>
<path d="M31.5152 141.818H23.6364V149.697H31.5152V141.818Z" fill="#239F23"/>
<path d="M63.0303 141.818H55.1515V149.697H63.0303V141.818Z" fill="#239F23"/>
<path d="M70.9091 141.818H63.0303V149.697H70.9091V141.818Z" fill="#239F23"/>
<path d="M78.7879 141.818H70.9091V149.697H78.7879V141.818Z" fill="#239F23"/>
<path d="M86.6667 141.818H78.7879V149.697H86.6667L86.6667 141.818Z" fill="#239F23"/>
<path d="M102.424 141.818H94.5455L94.5454 149.697H102.424V141.818Z" fill="#239F23"/>
<path d="M133.939 141.818H126.061V149.697H133.939V141.818Z" fill="#239F23"/>
<path d="M141.818 141.818H133.939V149.697H141.818V141.818Z" fill="#239F23"/>
<path d="M149.697 141.818H141.818V149.697H149.697V141.818Z" fill="#239F23"/>
<path d="M157.576 141.818H149.697V149.697H157.576V141.818Z" fill="#239F23"/>
<path d="M165.455 141.818H157.576V149.697H165.455L165.455 141.818Z" fill="#239F23"/>
<path d="M173.333 141.818H165.455L165.455 149.697H173.333V141.818Z" fill="#239F23"/>
<path d="M181.212 141.818H173.333V149.697H181.212V141.818Z" fill="#239F23"/>
<path d="M204.848 141.818H196.97V149.697H204.848V141.818Z" fill="#239F23"/>
<path d="M212.727 141.818H204.848V149.697H212.727V141.818Z" fill="#239F23"/>
<path d="M220.606 141.818H212.727V149.697H220.606V141.818Z" fill="#239F23"/>
<path d="M236.364 141.818H228.485V149.697H236.364V141.818Z" fill="#239F23"/>
<path d="M78.7879 149.697H70.9091V157.576H78.7879V149.697Z" fill="#239F23"/>
<path d="M86.6667 149.697H78.7879V157.576H86.6667V149.697Z" fill="#239F23"/>
<path d="M102.424 149.697H94.5454V157.576H102.424V149.697Z" fill="#239F23"/>
<path d="M110.303 149.697L102.424 149.697V157.576H110.303V149.697Z" fill="#239F23"/>
<path d="M133.939 149.697H126.061V157.576H133.939V149.697Z" fill="#239F23"/>
<path d="M149.697 149.697H141.818V157.576H149.697V149.697Z" fill="#239F23"/>
<path d="M157.576 149.697H149.697V157.576H157.576V149.697Z" fill="#239F23"/>
<path d="M165.455 149.697H157.576V157.576H165.455V149.697Z" fill="#239F23"/>
<path d="M173.333 149.697H165.455V157.576H173.333V149.697Z" fill="#239F23"/>
<path d="M181.212 149.697H173.333V157.576H181.212V149.697Z" fill="#239F23"/>
<path d="M189.091 149.697L181.212 149.697V157.576H189.091V149.697Z" fill="#239F23"/>
<path d="M204.848 149.697H196.97V157.576H204.848V149.697Z" fill="#239F23"/>
<path d="M220.606 149.697H212.727V157.576H220.606V149.697Z" fill="#239F23"/>
<path d="M228.485 149.697H220.606V157.576H228.485L228.485 149.697Z" fill="#239F23"/>
<path d="M236.364 149.697H228.485L228.485 157.576H236.364V149.697Z" fill="#239F23"/>
<path d="M23.6364 157.576H15.7576V165.455H23.6364V157.576Z" fill="#239F23"/>
<path d="M55.1515 157.576H47.2727V165.455H55.1515V157.576Z" fill="#239F23"/>
<path d="M70.9091 157.576L63.0303 157.576V165.455H70.9091V157.576Z" fill="#239F23"/>
<path d="M78.7879 157.576H70.9091V165.455H78.7879V157.576Z" fill="#239F23"/>
<path d="M94.5454 157.576H86.6667L86.6667 165.455H94.5455L94.5454 157.576Z" fill="#239F23"/>
<path d="M126.061 157.576L118.182 157.576V165.455H126.061V157.576Z" fill="#239F23"/>
<path d="M133.939 157.576H126.061V165.455H133.939V157.576Z" fill="#239F23"/>
<path d="M141.818 157.576H133.939V165.455H141.818V157.576Z" fill="#239F23"/>
<path d="M149.697 157.576H141.818V165.455H149.697V157.576Z" fill="#239F23"/>
<path d="M157.576 157.576H149.697V165.455H157.576V157.576Z" fill="#239F23"/>
<path d="M165.455 157.576H157.576V165.455H165.455V157.576Z" fill="#239F23"/>
<path d="M189.091 157.576H181.212L181.212 165.455H189.091V157.576Z" fill="#239F23"/>
<path d="M196.97 157.576H189.091V165.455H196.97V157.576Z" fill="#239F23"/>
<path d="M228.485 157.576H220.606L220.606 165.455H228.485V157.576Z" fill="#239F23"/>
<path d="M39.3939 165.455H31.5152V173.333H39.3939V165.455Z" fill="#239F23"/>
<path d="M78.7879 165.455H70.9091V173.333H78.7879V165.455Z" fill="#239F23"/>
<path d="M86.6667 165.455H78.7879V173.333H86.6667L86.6667 165.455Z" fill="#239F23"/>
<path d="M110.303 165.455H102.424V173.333H110.303V165.455Z" fill="#239F23"/>
<path d="M118.182 165.455L110.303 165.455V173.333H118.182L118.182 165.455Z" fill="#239F23"/>
<path d="M126.061 165.455H118.182L118.182 173.333H126.061V165.455Z" fill="#239F23"/>
<path d="M133.939 165.455H126.061V173.333H133.939V165.455Z" fill="#239F23"/>
<path d="M157.576 165.455H149.697L149.697 173.333H157.576V165.455Z" fill="#239F23"/>
<path d="M173.333 165.455L165.455 165.455L165.455 173.333H173.333V165.455Z" fill="#239F23"/>
<path d="M181.212 165.455L173.333 165.455V173.333H181.212L181.212 165.455Z" fill="#239F23"/>
<path d="M212.727 165.455H204.848V173.333H212.727V165.455Z" fill="#239F23"/>
<path d="M228.485 165.455H220.606V173.333H228.485V165.455Z" fill="#239F23"/>
<path d="M31.5152 173.333L23.6364 173.333V181.212H31.5152V173.333Z" fill="#239F23"/>
<path d="M47.2727 173.333L39.3939 173.333V181.212H47.2727V173.333Z" fill="#239F23"/>
<path d="M70.9091 173.333L63.0303 173.333V181.212H70.9091V173.333Z" fill="#239F23"/>
<path d="M102.424 173.333L94.5454 173.333V181.212H102.424V173.333Z" fill="#239F23"/>
<path d="M126.061 173.333H118.182L118.182 181.212H126.061V173.333Z" fill="#239F23"/>
<path d="M133.939 173.333H126.061V181.212H133.939V173.333Z" fill="#239F23"/>
<path d="M149.697 173.333L141.818 173.333V181.212H149.697L149.697 173.333Z" fill="#239F23"/>
<path d="M165.455 173.333H157.576L157.576 181.212H165.455L165.455 173.333Z" fill="#239F23"/>
<path d="M181.212 173.333H173.333L173.333 181.212H181.212V173.333Z" fill="#239F23"/>
<path d="M189.091 173.333L181.212 173.333V181.212H189.091V173.333Z" fill="#239F23"/>
<path d="M196.97 173.333H189.091V181.212H196.97V173.333Z" fill="#239F23"/>
<path d="M204.848 173.333L196.97 173.333V181.212H204.848L204.848 173.333Z" fill="#239F23"/>
<path d="M212.727 173.333H204.848L204.848 181.212H212.727V173.333Z" fill="#239F23"/>
<path d="M220.606 173.333H212.727V181.212H220.606L220.606 173.333Z" fill="#239F23"/>
<path d="M228.485 173.333H220.606L220.606 181.212H228.485V173.333Z" fill="#239F23"/>
<path d="M86.6667 181.212H78.7879V189.091H86.6667V181.212Z" fill="#239F23"/>
<path d="M94.5454 181.212L86.6667 181.212V189.091H94.5455L94.5454 181.212Z" fill="#239F23"/>
<path d="M102.424 181.212H94.5454L94.5455 189.091H102.424V181.212Z" fill="#239F23"/>
<path d="M141.818 181.212H133.939V189.091H141.818V181.212Z" fill="#239F23"/>
<path d="M149.697 181.212H141.818V189.091H149.697V181.212Z" fill="#239F23"/>
<path d="M165.455 181.212H157.576V189.091H165.455V181.212Z" fill="#239F23"/>
<path d="M181.212 181.212H173.333V189.091H181.212V181.212Z" fill="#239F23"/>
<path d="M212.727 181.212H204.848L204.848 189.091H212.727V181.212Z" fill="#239F23"/>
<path d="M220.606 181.212H212.727V189.091H220.606V181.212Z" fill="#239F23"/>
<path d="M228.485 181.212H220.606V189.091H228.485V181.212Z" fill="#239F23"/>
<path d="M236.364 181.212L228.485 181.212V189.091H236.364V181.212Z" fill="#239F23"/>
<path d="M244.242 181.212H236.364V189.091H244.242V181.212Z" fill="#239F23"/>
<path d="M86.6667 189.091H78.7879V196.97H86.6667V189.091Z" fill="#239F23"/>
<path d="M94.5455 189.091H86.6667V196.97H94.5455V189.091Z" fill="#239F23"/>
<path d="M118.182 189.091H110.303V196.97H118.182V189.091Z" fill="#239F23"/>
<path d="M133.939 189.091H126.061V196.97H133.939V189.091Z" fill="#239F23"/>
<path d="M141.818 189.091H133.939V196.97H141.818V189.091Z" fill="#239F23"/>
<path d="M165.455 189.091H157.576V196.97H165.455V189.091Z" fill="#239F23"/>
<path d="M173.333 189.091H165.455V196.97H173.333L173.333 189.091Z" fill="#239F23"/>
<path d="M181.212 189.091H173.333L173.333 196.97H181.212V189.091Z" fill="#239F23"/>
<path d="M196.97 189.091H189.091V196.97H196.97V189.091Z" fill="#239F23"/>
<path d="M212.727 189.091H204.848V196.97H212.727V189.091Z" fill="#239F23"/>
<path d="M220.606 189.091H212.727V196.97H220.606V189.091Z" fill="#239F23"/>
<path d="M236.364 189.091H228.485L228.485 196.97H236.364V189.091Z" fill="#239F23"/>
<path d="M86.6667 196.97H78.7879V204.848H86.6667V196.97Z" fill="#239F23"/>
<path d="M94.5455 196.97H86.6667V204.848H94.5455V196.97Z" fill="#239F23"/>
<path d="M110.303 196.97H102.424V204.848H110.303V196.97Z" fill="#239F23"/>
<path d="M126.061 196.97H118.182L118.182 204.848H126.061V196.97Z" fill="#239F23"/>
<path d="M133.939 196.97H126.061V204.848H133.939V196.97Z" fill="#239F23"/>
<path d="M141.818 196.97H133.939V204.848H141.818V196.97Z" fill="#239F23"/>
<path d="M165.455 196.97H157.576V204.848H165.455V196.97Z" fill="#239F23"/>
<path d="M181.212 196.97H173.333L173.333 204.848H181.212V196.97Z" fill="#239F23"/>
<path d="M212.727 196.97H204.848V204.848H212.727V196.97Z" fill="#239F23"/>
<path d="M220.606 196.97H212.727V204.848H220.606V196.97Z" fill="#239F23"/>
<path d="M94.5455 204.848H86.6667L86.6667 212.727H94.5455V204.848Z" fill="#239F23"/>
<path d="M102.424 204.848H94.5455V212.727H102.424V204.848Z" fill="#239F23"/>
<path d="M181.212 204.848H173.333V212.727H181.212V204.848Z" fill="#239F23"/>
<path d="M189.091 204.848L181.212 204.848V212.727H189.091V204.848Z" fill="#239F23"/>
<path d="M196.97 204.848H189.091V212.727H196.97V204.848Z" fill="#239F23"/>
<path d="M204.848 204.848L196.97 204.848V212.727H204.848L204.848 204.848Z" fill="#239F23"/>
<path d="M212.727 204.848H204.848L204.848 212.727H212.727V204.848Z" fill="#239F23"/>
<path d="M228.485 204.848L220.606 204.848L220.606 212.727H228.485V204.848Z" fill="#239F23"/>
<path d="M244.242 204.848H236.364V212.727H244.242V204.848Z" fill="#239F23"/>
<path d="M86.6667 212.727H78.7879V220.606H86.6667L86.6667 212.727Z" fill="#239F23"/>
<path d="M110.303 212.727H102.424V220.606H110.303V212.727Z" fill="#239F23"/>
<path d="M126.061 212.727H118.182V220.606H126.061V212.727Z" fill="#239F23"/>
<path d="M189.091 212.727H181.212L181.212 220.606H189.091V212.727Z" fill="#239F23"/>
<path d="M204.848 212.727H196.97V220.606H204.848V212.727Z" fill="#239F23"/>
<path d="M212.727 212.727H204.848V220.606H212.727V212.727Z" fill="#239F23"/>
<path d="M220.606 212.727H212.727V220.606H220.606L220.606 212.727Z" fill="#239F23"/>
<path d="M236.364 212.727H228.485L228.485 220.606H236.364V212.727Z" fill="#239F23"/>
<path d="M86.6667 220.606H78.7879V228.485H86.6667V220.606Z" fill="#239F23"/>
<path d="M94.5455 220.606L86.6667 220.606V228.485H94.5455V220.606Z" fill="#239F23"/>
<path d="M118.182 220.606H110.303V228.485H118.182L118.182 220.606Z" fill="#239F23"/>
<path d="M126.061 220.606H118.182L118.182 228.485H126.061V220.606Z" fill="#239F23"/>
<path d="M133.939 220.606L126.061 220.606V228.485H133.939V220.606Z" fill="#239F23"/>
<path d="M196.97 220.606H189.091V228.485H196.97V220.606Z" fill="#239F23"/>
<path d="M228.485 220.606H220.606L220.606 228.485H228.485L228.485 220.606Z" fill="#239F23"/>
<path d="M244.242 220.606L236.364 220.606V228.485H244.242V220.606Z" fill="#239F23"/>
<path d="M118.182 228.485H110.303V236.364H118.182V228.485Z" fill="#239F23"/>
<path d="M126.061 228.485H118.182V236.364H126.061V228.485Z" fill="#239F23"/>
<path d="M141.818 228.485L133.939 228.485V236.364H141.818V228.485Z" fill="#239F23"/>
<path d="M212.727 228.485H204.848V236.364H212.727V228.485Z" fill="#239F23"/>
<path d="M220.606 228.485L212.727 228.485V236.364H220.606L220.606 228.485Z" fill="#239F23"/>
<path d="M236.364 228.485H228.485L228.485 236.364H236.364V228.485Z" fill="#239F23"/>
<path d="M86.6667 236.364H78.7879V244.242H86.6667V236.364Z" fill="#239F23"/>
<path d="M94.5455 236.364H86.6667V244.242H94.5455V236.364Z" fill="#239F23"/>
<path d="M118.182 236.364H110.303V244.242H118.182V236.364Z" fill="#239F23"/>
<path d="M126.061 236.364H118.182V244.242H126.061V236.364Z" fill="#239F23"/>
<path d="M133.939 236.364H126.061V244.242H133.939V236.364Z" fill="#239F23"/>
<path d="M141.818 236.364H133.939V244.242H141.818V236.364Z" fill="#239F23"/>
<path d="M149.697 236.364H141.818V244.242H149.697V236.364Z" fill="#239F23"/>
<path d="M165.455 236.364H157.576V244.242H165.455V236.364Z" fill="#239F23"/>
<path d="M173.333 236.364H165.455V244.242H173.333V236.364Z" fill="#239F23"/>
<path d="M181.212 236.364H173.333V244.242H181.212V236.364Z" fill="#239F23"/>
<path d="M220.606 236.364H212.727V244.242H220.606V236.364Z" fill="#239F23"/>
<path d="M236.364 236.364H228.485V244.242H236.364V236.364Z" fill="#239F23"/>
<path d="M15.7576 15.7576V70.9091H70.9091V15.7576H15.7576ZM62.6364 62.6364H24.0303V24.0303H62.6364V62.6364Z" fill="#239F23"/>
<path d="M189.091 15.7576V70.9091H244.242V15.7576H189.091ZM235.97 62.6364H197.364V24.0303H235.97V62.6364Z" fill="#239F23"/>
<path d="M15.7576 189.091V244.242H70.9091V189.091H15.7576ZM62.6364 235.97H24.0303V197.364H62.6364V235.97Z" fill="#239F23"/>
<path d="M55.1659 31.5189V55.1515H31.5296L31.5362 38.0461C31.536 34.4456 34.4153 31.5152 37.9504 31.5152H48.7116C49.8182 31.5152 51.4316 31.5152 52.7702 31.5189C54.1054 31.5189 55.1659 31.5189 55.1659 31.5189Z" fill="#239F23"/>
<path d="M204.834 31.5189V55.1515H228.47L228.464 38.0461C228.464 34.4456 225.585 31.5152 222.05 31.5152H211.288C210.182 31.5152 208.568 31.5152 207.23 31.5189C205.895 31.5189 204.834 31.5189 204.834 31.5189Z" fill="#239F23"/>
<path d="M55.1659 228.481V204.848H31.5296L31.5362 221.954C31.536 225.554 34.4153 228.485 37.9504 228.485H48.7116C49.8182 228.485 51.4316 228.485 52.7702 228.481C54.1054 228.481 55.1659 228.481 55.1659 228.481Z" fill="#239F23"/>
</svg>
