<svg width="260" height="260" viewBox="0 0 260 260" fill="none" xmlns="http://www.w3.org/2000/svg">
<path d="M259.004 0H0V260H259.004V0Z" fill="white"/>
<path d="M94.1832 15.7576H86.3346V23.6364H94.1832V15.7576Z" fill="#239F23"/>
<path d="M102.032 15.7576H94.1832V23.6364H102.032V15.7576Z" fill="#239F23"/>
<path d="M109.88 15.7576H102.032V23.6364H109.88V15.7576Z" fill="#239F23"/>
<path d="M125.578 15.7576H117.729V23.6364H125.578V15.7576Z" fill="#239F23"/>
<path d="M149.123 15.7576H141.275V23.6364H149.123V15.7576Z" fill="#239F23"/>
<path d="M156.972 15.7576H149.123V23.6364H156.972V15.7576Z" fill="#239F23"/>
<path d="M125.578 23.6364H117.729V31.5152H125.578V23.6364Z" fill="#239F23"/>
<path d="M133.426 23.6364H125.578V31.5152H133.426V23.6364Z" fill="#239F23"/>
<path d="M141.275 23.6364H133.426V31.5152H141.275V23.6364Z" fill="#239F23"/>
<path d="M156.972 23.6364H149.123L149.123 31.5152H156.972V23.6364Z" fill="#239F23"/>
<path d="M180.518 23.6364H172.669V31.5152H180.518V23.6364Z" fill="#239F23"/>
<path d="M109.88 31.5152H102.032V39.3939H109.88V31.5152Z" fill="#239F23"/>
<path d="M117.729 31.5152H109.88V39.3939H117.729L117.729 31.5152Z" fill="#239F23"/>
<path d="M125.578 31.5152H117.729L117.729 39.3939H125.578V31.5152Z" fill="#239F23"/>
<path d="M149.123 31.5152H141.275V39.3939H149.123L149.123 31.5152Z" fill="#239F23"/>
<path d="M156.972 31.5152H149.123L149.123 39.3939H156.972V31.5152Z" fill="#239F23"/>
<path d="M172.669 31.5152H164.821V39.3939H172.669V31.5152Z" fill="#239F23"/>
<path d="M125.578 39.3939H117.729L117.729 47.2727H125.578V39.3939Z" fill="#239F23"/>
<path d="M133.426 39.3939H125.578V47.2727H133.426V39.3939Z" fill="#239F23"/>
<path d="M141.275 39.3939H133.426V47.2727H141.275V39.3939Z" fill="#239F23"/>
<path d="M164.821 39.3939H156.972L156.972 47.2727H164.821L164.821 39.3939Z" fill="#239F23"/>
<path d="M172.669 39.3939H164.821L164.821 47.2727H172.669V39.3939Z" fill="#239F23"/>
<path d="M180.518 39.3939H172.669V47.2727H180.518V39.3939Z" fill="#239F23"/>
<path d="M94.1832 47.2727H86.3346V55.1515H94.1832V47.2727Z" fill="#239F23"/>
<path d="M102.032 47.2727H94.1832V55.1515H102.032V47.2727Z" fill="#239F23"/>
<path d="M109.88 47.2727H102.032V55.1515H109.88V47.2727Z" fill="#239F23"/>
<path d="M117.729 47.2727H109.88V55.1515H117.729L117.729 47.2727Z" fill="#239F23"/>
<path d="M125.578 47.2727H117.729L117.729 55.1515H125.578V47.2727Z" fill="#239F23"/>
<path d="M133.426 47.2727H125.578V55.1515H133.426V47.2727Z" fill="#239F23"/>
<path d="M149.123 47.2727H141.275V55.1515H149.123V47.2727Z" fill="#239F23"/>
<path d="M156.972 47.2727H149.123V55.1515H156.972L156.972 47.2727Z" fill="#239F23"/>
<path d="M164.821 47.2727H156.972L156.972 55.1515H164.821V47.2727Z" fill="#239F23"/>
<path d="M172.669 47.2727H164.821V55.1515H172.669V47.2727Z" fill="#239F23"/>
<path d="M86.3346 55.1515H78.486V63.0303H86.3346L86.3346 55.1515Z" fill="#239F23"/>
<path d="M94.1832 55.1515H86.3346L86.3346 63.0303H94.1832V55.1515Z" fill="#239F23"/>
<path d="M102.032 55.1515H94.1832V63.0303H102.032V55.1515Z" fill="#239F23"/>
<path d="M117.729 55.1515H109.88L109.88 63.0303H117.729V55.1515Z" fill="#239F23"/>
<path d="M125.578 55.1515H117.729V63.0303H125.578V55.1515Z" fill="#239F23"/>
<path d="M133.426 55.1515H125.578V63.0303H133.426V55.1515Z" fill="#239F23"/>
<path d="M172.669 55.1515H164.821L164.821 63.0303H172.669V55.1515Z" fill="#239F23"/>
<path d="M86.3346 63.0303H78.486V70.9091H86.3346V63.0303Z" fill="#239F23"/>
<path d="M102.032 63.0303H94.1832V70.9091H102.032V63.0303Z" fill="#239F23"/>
<path d="M117.729 63.0303H109.88V70.9091H117.729V63.0303Z" fill="#239F23"/>
<path d="M133.426 63.0303H125.578V70.9091H133.426V63.0303Z" fill="#239F23"/>
<path d="M149.123 63.0303H141.275V70.9091H149.123V63.0303Z" fill="#239F23"/>
<path d="M164.821 63.0303H156.972V70.9091H164.821L164.821 63.0303Z" fill="#239F23"/>
<path d="M180.518 63.0303H172.669V70.9091H180.518V63.0303Z" fill="#239F23"/>
<path d="M102.032 70.9091H94.1832V78.7879H102.032V70.9091Z" fill="#239F23"/>
<path d="M109.88 70.9091H102.032V78.7879H109.88L109.88 70.9091Z" fill="#239F23"/>
<path d="M133.426 70.9091H125.578V78.7879H133.426V70.9091Z" fill="#239F23"/>
<path d="M156.972 70.9091H149.123L149.123 78.7879H156.972L156.972 70.9091Z" fill="#239F23"/>
<path d="M164.821 70.9091H156.972L156.972 78.7879H164.821V70.9091Z" fill="#239F23"/>
<path d="M23.5458 78.7879H15.6972V86.6667H23.5458V78.7879Z" fill="#239F23"/>
<path d="M47.0916 78.7879H39.243V86.6667H47.0916V78.7879Z" fill="#239F23"/>
<path d="M62.7888 78.7879H54.9402V86.6667H62.7888V78.7879Z" fill="#239F23"/>
<path d="M70.6374 78.7879H62.7888V86.6667H70.6374V78.7879Z" fill="#239F23"/>
<path d="M86.3346 78.7879H78.486V86.6667H86.3346V78.7879Z" fill="#239F23"/>
<path d="M141.275 78.7879H133.426V86.6667H141.275V78.7879Z" fill="#239F23"/>
<path d="M156.972 78.7879H149.123V86.6667H156.972V78.7879Z" fill="#239F23"/>
<path d="M172.669 78.7879H164.821L164.821 86.6667H172.669V78.7879Z" fill="#239F23"/>
<path d="M188.366 78.7879H180.518V86.6667H188.366V78.7879Z" fill="#239F23"/>
<path d="M204.064 78.7879H196.215V86.6667H204.064V78.7879Z" fill="#239F23"/>
<path d="M47.0916 86.6667H39.243V94.5455H47.0916V86.6667Z" fill="#239F23"/>
<path d="M54.9402 86.6667H47.0916V94.5455H54.9402V86.6667Z" fill="#239F23"/>
<path d="M86.3346 86.6667H78.486V94.5455H86.3346V86.6667Z" fill="#239F23"/>
<path d="M109.88 86.6667H102.032V94.5455H109.88V86.6667Z" fill="#239F23"/>
<path d="M117.729 86.6667H109.88V94.5455H117.729V86.6667Z" fill="#239F23"/>
<path d="M133.426 86.6667L125.578 86.6667V94.5455H133.426V86.6667Z" fill="#239F23"/>
<path d="M141.275 86.6667H133.426V94.5455H141.275V86.6667Z" fill="#239F23"/>
<path d="M156.972 86.6667H149.123V94.5455H156.972V86.6667Z" fill="#239F23"/>
<path d="M164.821 86.6667H156.972V94.5455H164.821L164.821 86.6667Z" fill="#239F23"/>
<path d="M172.669 86.6667H164.821L164.821 94.5455H172.669V86.6667Z" fill="#239F23"/>
<path d="M180.518 86.6667H172.669V94.5455H180.518V86.6667Z" fill="#239F23"/>
<path d="M188.366 86.6667H180.518V94.5455H188.366V86.6667Z" fill="#239F23"/>
<path d="M196.215 86.6667H188.366V94.5455H196.215V86.6667Z" fill="#239F23"/>
<path d="M204.064 86.6667H196.215V94.5455H204.064V86.6667Z" fill="#239F23"/>
<path d="M219.761 86.6667H211.912V94.5455H219.761V86.6667Z" fill="#239F23"/>
<path d="M243.307 86.6667H235.458V94.5455H243.307V86.6667Z" fill="#239F23"/>
<path d="M39.243 94.5455H31.3944V102.424H39.243V94.5455Z" fill="#239F23"/>
<path d="M70.6374 94.5455H62.7888V102.424H70.6374V94.5455Z" fill="#239F23"/>
<path d="M94.1832 94.5455H86.3346L86.3346 102.424H94.1832V94.5455Z" fill="#239F23"/>
<path d="M109.88 94.5455H102.032V102.424H109.88V94.5455Z" fill="#239F23"/>
<path d="M149.123 94.5455H141.275V102.424H149.123L149.123 94.5455Z" fill="#239F23"/>
<path d="M164.821 94.5455H156.972L156.972 102.424H164.821V94.5455Z" fill="#239F23"/>
<path d="M172.669 94.5455H164.821V102.424H172.669V94.5455Z" fill="#239F23"/>
<path d="M188.366 94.5455H180.518V102.424H188.366V94.5455Z" fill="#239F23"/>
<path d="M196.215 94.5455H188.366V102.424H196.215V94.5455Z" fill="#239F23"/>
<path d="M204.064 94.5455H196.215V102.424H204.064V94.5455Z" fill="#239F23"/>
<path d="M211.912 94.5455H204.064V102.424H211.912L211.912 94.5455Z" fill="#239F23"/>
<path d="M219.761 94.5455H211.912L211.912 102.424H219.761V94.5455Z" fill="#239F23"/>
<path d="M227.609 94.5455H219.761V102.424H227.609V94.5455Z" fill="#239F23"/>
<path d="M235.458 94.5455H227.609V102.424H235.458V94.5455Z" fill="#239F23"/>
<path d="M23.5458 102.424H15.6972V110.303H23.5458V102.424Z" fill="#239F23"/>
<path d="M39.243 102.424H31.3944V110.303H39.243V102.424Z" fill="#239F23"/>
<path d="M62.7888 102.424H54.9402V110.303H62.7888V102.424Z" fill="#239F23"/>
<path d="M78.486 102.424H70.6374V110.303H78.486V102.424Z" fill="#239F23"/>
<path d="M86.3346 102.424H78.486V110.303H86.3346L86.3346 102.424Z" fill="#239F23"/>
<path d="M94.1832 102.424H86.3346L86.3346 110.303H94.1832V102.424Z" fill="#239F23"/>
<path d="M102.032 102.424H94.1832V110.303H102.032V102.424Z" fill="#239F23"/>
<path d="M117.729 102.424H109.88L109.88 110.303H117.729V102.424Z" fill="#239F23"/>
<path d="M133.426 102.424H125.578V110.303H133.426V102.424Z" fill="#239F23"/>
<path d="M141.275 102.424H133.426V110.303H141.275V102.424Z" fill="#239F23"/>
<path d="M164.821 102.424H156.972V110.303H164.821V102.424Z" fill="#239F23"/>
<path d="M172.669 102.424H164.821V110.303H172.669V102.424Z" fill="#239F23"/>
<path d="M180.518 102.424H172.669V110.303H180.518V102.424Z" fill="#239F23"/>
<path d="M196.215 102.424H188.366V110.303H196.215V102.424Z" fill="#239F23"/>
<path d="M204.064 102.424H196.215V110.303H204.064V102.424Z" fill="#239F23"/>
<path d="M227.609 102.424H219.761L219.761 110.303H227.609V102.424Z" fill="#239F23"/>
<path d="M235.458 102.424H227.609V110.303H235.458V102.424Z" fill="#239F23"/>
<path d="M39.243 110.303H31.3944V118.182H39.243V110.303Z" fill="#239F23"/>
<path d="M62.7888 110.303H54.9402V118.182H62.7888V110.303Z" fill="#239F23"/>
<path d="M70.6374 110.303H62.7888V118.182H70.6374V110.303Z" fill="#239F23"/>
<path d="M78.486 110.303H70.6374V118.182H78.486V110.303Z" fill="#239F23"/>
<path d="M117.729 110.303H109.88V118.182H117.729V110.303Z" fill="#239F23"/>
<path d="M149.123 110.303L141.275 110.303V118.182H149.123V110.303Z" fill="#239F23"/>
<path d="M156.972 110.303L149.123 110.303V118.182H156.972L156.972 110.303Z" fill="#239F23"/>
<path d="M164.821 110.303H156.972L156.972 118.182H164.821V110.303Z" fill="#239F23"/>
<path d="M172.669 110.303H164.821V118.182H172.669V110.303Z" fill="#239F23"/>
<path d="M196.215 110.303H188.366V118.182H196.215V110.303Z" fill="#239F23"/>
<path d="M219.761 110.303L211.912 110.303V118.182H219.761L219.761 110.303Z" fill="#239F23"/>
<path d="M235.458 110.303H227.609L227.609 118.182H235.458V110.303Z" fill="#239F23"/>
<path d="M243.307 110.303L235.458 110.303V118.182H243.307V110.303Z" fill="#239F23"/>
<path d="M54.9402 118.182L47.0916 118.182V126.061H54.9402V118.182Z" fill="#239F23"/>
<path d="M62.7888 118.182H54.9402V126.061H62.7888V118.182Z" fill="#239F23"/>
<path d="M78.486 118.182H70.6374V126.061H78.486V118.182Z" fill="#239F23"/>
<path d="M86.3346 118.182L78.486 118.182V126.061H86.3346V118.182Z" fill="#239F23"/>
<path d="M117.729 118.182H109.88V126.061H117.729V118.182Z" fill="#239F23"/>
<path d="M141.275 118.182L133.426 118.182V126.061H141.275V118.182Z" fill="#239F23"/>
<path d="M156.972 118.182H149.123L149.123 126.061H156.972V118.182Z" fill="#239F23"/>
<path d="M164.821 118.182H156.972V126.061H164.821V118.182Z" fill="#239F23"/>
<path d="M172.669 118.182H164.821V126.061H172.669V118.182Z" fill="#239F23"/>
<path d="M180.518 118.182L172.669 118.182V126.061H180.518V118.182Z" fill="#239F23"/>
<path d="M188.366 118.182L180.518 118.182V126.061H188.366V118.182Z" fill="#239F23"/>
<path d="M31.3944 126.061H23.5458V133.939H31.3944V126.061Z" fill="#239F23"/>
<path d="M47.0916 126.061H39.243V133.939H47.0916V126.061Z" fill="#239F23"/>
<path d="M54.9402 126.061H47.0916V133.939H54.9402V126.061Z" fill="#239F23"/>
<path d="M62.7888 126.061H54.9402V133.939H62.7888V126.061Z" fill="#239F23"/>
<path d="M70.6374 126.061H62.7888V133.939H70.6374V126.061Z" fill="#239F23"/>
<path d="M78.486 126.061H70.6374V133.939H78.486V126.061Z" fill="#239F23"/>
<path d="M102.032 126.061H94.1832V133.939H102.032V126.061Z" fill="#239F23"/>
<path d="M109.88 126.061H102.032V133.939H109.88L109.88 126.061Z" fill="#239F23"/>
<path d="M117.729 126.061H109.88L109.88 133.939H117.729V126.061Z" fill="#239F23"/>
<path d="M141.275 126.061H133.426V133.939H141.275V126.061Z" fill="#239F23"/>
<path d="M149.123 126.061H141.275V133.939H149.123L149.123 126.061Z" fill="#239F23"/>
<path d="M156.972 126.061H149.123L149.123 133.939H156.972V126.061Z" fill="#239F23"/>
<path d="M211.912 126.061H204.064V133.939H211.912V126.061Z" fill="#239F23"/>
<path d="M219.761 126.061H211.912V133.939H219.761V126.061Z" fill="#239F23"/>
<path d="M227.609 126.061H219.761V133.939H227.609V126.061Z" fill="#239F23"/>
<path d="M235.458 126.061H227.609V133.939H235.458V126.061Z" fill="#239F23"/>
<path d="M243.307 126.061H235.458V133.939H243.307V126.061Z" fill="#239F23"/>
<path d="M23.5458 133.939H15.6972V141.818H23.5458V133.939Z" fill="#239F23"/>
<path d="M39.243 133.939H31.3944V141.818H39.243V133.939Z" fill="#239F23"/>
<path d="M62.7888 133.939H54.9402V141.818H62.7888V133.939Z" fill="#239F23"/>
<path d="M78.486 133.939H70.6374V141.818H78.486V133.939Z" fill="#239F23"/>
<path d="M94.1832 133.939H86.3346V141.818H94.1832V133.939Z" fill="#239F23"/>
<path d="M125.578 133.939H117.729L117.729 141.818H125.578V133.939Z" fill="#239F23"/>
<path d="M133.426 133.939H125.578V141.818H133.426V133.939Z" fill="#239F23"/>
<path d="M149.123 133.939H141.275V141.818H149.123V133.939Z" fill="#239F23"/>
<path d="M156.972 133.939H149.123V141.818H156.972V133.939Z" fill="#239F23"/>
<path d="M164.821 133.939H156.972V141.818H164.821V133.939Z" fill="#239F23"/>
<path d="M180.518 133.939H172.669V141.818H180.518V133.939Z" fill="#239F23"/>
<path d="M196.215 133.939H188.366V141.818H196.215V133.939Z" fill="#239F23"/>
<path d="M211.912 133.939H204.064V141.818H211.912V133.939Z" fill="#239F23"/>
<path d="M219.761 133.939H211.912V141.818H219.761V133.939Z" fill="#239F23"/>
<path d="M235.458 133.939H227.609L227.609 141.818H235.458V133.939Z" fill="#239F23"/>
<path d="M31.3944 141.818H23.5458V149.697H31.3944V141.818Z" fill="#239F23"/>
<path d="M39.243 141.818H31.3944V149.697H39.243V141.818Z" fill="#239F23"/>
<path d="M47.0916 141.818H39.243V149.697H47.0916V141.818Z" fill="#239F23"/>
<path d="M62.7888 141.818H54.9402V149.697H62.7888V141.818Z" fill="#239F23"/>
<path d="M70.6374 141.818H62.7888V149.697H70.6374V141.818Z" fill="#239F23"/>
<path d="M86.3346 141.818H78.486V149.697H86.3346L86.3346 141.818Z" fill="#239F23"/>
<path d="M102.032 141.818H94.1832V149.697H102.032V141.818Z" fill="#239F23"/>
<path d="M125.578 141.818H117.729V149.697H125.578V141.818Z" fill="#239F23"/>
<path d="M133.426 141.818H125.578V149.697H133.426V141.818Z" fill="#239F23"/>
<path d="M141.275 141.818H133.426V149.697H141.275V141.818Z" fill="#239F23"/>
<path d="M149.123 141.818H141.275V149.697H149.123V141.818Z" fill="#239F23"/>
<path d="M172.669 141.818H164.821L164.821 149.697H172.669V141.818Z" fill="#239F23"/>
<path d="M180.518 141.818H172.669V149.697H180.518V141.818Z" fill="#239F23"/>
<path d="M188.366 141.818H180.518V149.697H188.366V141.818Z" fill="#239F23"/>
<path d="M235.458 141.818H227.609V149.697H235.458V141.818Z" fill="#239F23"/>
<path d="M39.243 149.697H31.3944V157.576H39.243V149.697Z" fill="#239F23"/>
<path d="M47.0916 149.697H39.243V157.576H47.0916V149.697Z" fill="#239F23"/>
<path d="M62.7888 149.697H54.9402V157.576H62.7888V149.697Z" fill="#239F23"/>
<path d="M78.486 149.697H70.6374V157.576H78.486V149.697Z" fill="#239F23"/>
<path d="M86.3346 149.697H78.486V157.576H86.3346V149.697Z" fill="#239F23"/>
<path d="M94.1832 149.697H86.3346V157.576H94.1832V149.697Z" fill="#239F23"/>
<path d="M109.88 149.697L102.032 149.697V157.576H109.88V149.697Z" fill="#239F23"/>
<path d="M117.729 149.697L109.88 149.697V157.576H117.729L117.729 149.697Z" fill="#239F23"/>
<path d="M141.275 149.697H133.426V157.576H141.275V149.697Z" fill="#239F23"/>
<path d="M156.972 149.697L149.123 149.697L149.123 157.576H156.972V149.697Z" fill="#239F23"/>
<path d="M172.669 149.697H164.821V157.576H172.669V149.697Z" fill="#239F23"/>
<path d="M188.366 149.697H180.518V157.576H188.366V149.697Z" fill="#239F23"/>
<path d="M196.215 149.697L188.366 149.697V157.576H196.215V149.697Z" fill="#239F23"/>
<path d="M204.064 149.697H196.215V157.576H204.064V149.697Z" fill="#239F23"/>
<path d="M219.761 149.697H211.912V157.576H219.761V149.697Z" fill="#239F23"/>
<path d="M243.307 149.697L235.458 149.697V157.576H243.307V149.697Z" fill="#239F23"/>
<path d="M23.5458 157.576H15.6972V165.455H23.5458V157.576Z" fill="#239F23"/>
<path d="M39.243 157.576H31.3944V165.455H39.243V157.576Z" fill="#239F23"/>
<path d="M70.6374 157.576H62.7888V165.455H70.6374V157.576Z" fill="#239F23"/>
<path d="M78.486 157.576H70.6374V165.455H78.486V157.576Z" fill="#239F23"/>
<path d="M102.032 157.576H94.1832V165.455H102.032V157.576Z" fill="#239F23"/>
<path d="M125.578 157.576L117.729 157.576L117.729 165.455H125.578V157.576Z" fill="#239F23"/>
<path d="M156.972 157.576H149.123V165.455H156.972V157.576Z" fill="#239F23"/>
<path d="M235.458 157.576L227.609 157.576V165.455H235.458V157.576Z" fill="#239F23"/>
<path d="M243.307 157.576H235.458V165.455H243.307V157.576Z" fill="#239F23"/>
<path d="M54.9402 165.455H47.0916V173.333H54.9402V165.455Z" fill="#239F23"/>
<path d="M94.1832 165.455L86.3346 165.455V173.333H94.1832V165.455Z" fill="#239F23"/>
<path d="M102.032 165.455H94.1832V173.333H102.032V165.455Z" fill="#239F23"/>
<path d="M109.88 165.455L102.032 165.455V173.333H109.88V165.455Z" fill="#239F23"/>
<path d="M117.729 165.455L109.88 165.455V173.333H117.729L117.729 165.455Z" fill="#239F23"/>
<path d="M125.578 165.455H117.729L117.729 173.333H125.578V165.455Z" fill="#239F23"/>
<path d="M141.275 165.455H133.426V173.333H141.275V165.455Z" fill="#239F23"/>
<path d="M149.123 165.455L141.275 165.455V173.333H149.123L149.123 165.455Z" fill="#239F23"/>
<path d="M156.972 165.455H149.123L149.123 173.333H156.972V165.455Z" fill="#239F23"/>
<path d="M164.821 165.455L156.972 165.455V173.333H164.821V165.455Z" fill="#239F23"/>
<path d="M180.518 165.455H172.669V173.333H180.518V165.455Z" fill="#239F23"/>
<path d="M188.366 165.455H180.518V173.333H188.366V165.455Z" fill="#239F23"/>
<path d="M211.912 165.455H204.064V173.333H211.912V165.455Z" fill="#239F23"/>
<path d="M235.458 165.455H227.609V173.333H235.458V165.455Z" fill="#239F23"/>
<path d="M243.307 165.455H235.458V173.333H243.307V165.455Z" fill="#239F23"/>
<path d="M23.5458 173.333H15.6972V181.212H23.5458V173.333Z" fill="#239F23"/>
<path d="M39.243 173.333H31.3944V181.212H39.243V173.333Z" fill="#239F23"/>
<path d="M70.6374 173.333H62.7888V181.212H70.6374V173.333Z" fill="#239F23"/>
<path d="M78.486 173.333H70.6374V181.212H78.486V173.333Z" fill="#239F23"/>
<path d="M86.3346 173.333H78.486V181.212H86.3346L86.3346 173.333Z" fill="#239F23"/>
<path d="M109.88 173.333H102.032V181.212H109.88V173.333Z" fill="#239F23"/>
<path d="M133.426 173.333H125.578V181.212H133.426V173.333Z" fill="#239F23"/>
<path d="M149.123 173.333H141.275V181.212H149.123V173.333Z" fill="#239F23"/>
<path d="M156.972 173.333H149.123V181.212H156.972V173.333Z" fill="#239F23"/>
<path d="M180.518 173.333H172.669V181.212H180.518V173.333Z" fill="#239F23"/>
<path d="M188.366 173.333H180.518V181.212H188.366V173.333Z" fill="#239F23"/>
<path d="M196.215 173.333H188.366V181.212H196.215V173.333Z" fill="#239F23"/>
<path d="M204.064 173.333H196.215V181.212H204.064L204.064 173.333Z" fill="#239F23"/>
<path d="M211.912 173.333H204.064L204.064 181.212H211.912V173.333Z" fill="#239F23"/>
<path d="M227.609 173.333H219.761V181.212H227.609L227.609 173.333Z" fill="#239F23"/>
<path d="M86.3346 181.212H78.486V189.091H86.3346V181.212Z" fill="#239F23"/>
<path d="M102.032 181.212H94.1832V189.091H102.032V181.212Z" fill="#239F23"/>
<path d="M117.729 181.212H109.88L109.88 189.091H117.729V181.212Z" fill="#239F23"/>
<path d="M125.578 181.212H117.729V189.091H125.578V181.212Z" fill="#239F23"/>
<path d="M141.275 181.212H133.426V189.091H141.275V181.212Z" fill="#239F23"/>
<path d="M149.123 181.212H141.275V189.091H149.123V181.212Z" fill="#239F23"/>
<path d="M156.972 181.212H149.123V189.091H156.972V181.212Z" fill="#239F23"/>
<path d="M180.518 181.212H172.669V189.091H180.518V181.212Z" fill="#239F23"/>
<path d="M211.912 181.212H204.064L204.064 189.091H211.912V181.212Z" fill="#239F23"/>
<path d="M227.609 181.212H219.761V189.091H227.609V181.212Z" fill="#239F23"/>
<path d="M235.458 181.212H227.609V189.091H235.458V181.212Z" fill="#239F23"/>
<path d="M243.307 181.212H235.458V189.091H243.307V181.212Z" fill="#239F23"/>
<path d="M94.1832 189.091H86.3346L86.3346 196.97H94.1832V189.091Z" fill="#239F23"/>
<path d="M102.032 189.091H94.1832V196.97H102.032V189.091Z" fill="#239F23"/>
<path d="M117.729 189.091H109.88V196.97H117.729V189.091Z" fill="#239F23"/>
<path d="M125.578 189.091H117.729V196.97H125.578V189.091Z" fill="#239F23"/>
<path d="M133.426 189.091H125.578V196.97H133.426V189.091Z" fill="#239F23"/>
<path d="M141.275 189.091H133.426V196.97H141.275V189.091Z" fill="#239F23"/>
<path d="M180.518 189.091H172.669V196.97H180.518V189.091Z" fill="#239F23"/>
<path d="M196.215 189.091H188.366V196.97H196.215V189.091Z" fill="#239F23"/>
<path d="M211.912 189.091H204.064V196.97H211.912V189.091Z" fill="#239F23"/>
<path d="M235.458 189.091H227.609L227.609 196.97H235.458V189.091Z" fill="#239F23"/>
<path d="M86.3346 196.97H78.486V204.848H86.3346L86.3346 196.97Z" fill="#239F23"/>
<path d="M94.1832 196.97H86.3346L86.3346 204.848H94.1832V196.97Z" fill="#239F23"/>
<path d="M102.032 196.97H94.1832V204.848H102.032V196.97Z" fill="#239F23"/>
<path d="M117.729 196.97H109.88V204.848H117.729V196.97Z" fill="#239F23"/>
<path d="M125.578 196.97H117.729V204.848H125.578V196.97Z" fill="#239F23"/>
<path d="M149.123 196.97H141.275V204.848H149.123V196.97Z" fill="#239F23"/>
<path d="M172.669 196.97H164.821V204.848H172.669V196.97Z" fill="#239F23"/>
<path d="M180.518 196.97H172.669V204.848H180.518V196.97Z" fill="#239F23"/>
<path d="M211.912 196.97H204.064V204.848H211.912V196.97Z" fill="#239F23"/>
<path d="M219.761 196.97H211.912V204.848H219.761V196.97Z" fill="#239F23"/>
<path d="M227.609 196.97H219.761V204.848H227.609L227.609 196.97Z" fill="#239F23"/>
<path d="M235.458 196.97H227.609L227.609 204.848H235.458V196.97Z" fill="#239F23"/>
<path d="M243.307 196.97H235.458V204.848H243.307V196.97Z" fill="#239F23"/>
<path d="M102.032 204.848H94.1832V212.727H102.032V204.848Z" fill="#239F23"/>
<path d="M109.88 204.848H102.032V212.727H109.88L109.88 204.848Z" fill="#239F23"/>
<path d="M117.729 204.848H109.88L109.88 212.727H117.729V204.848Z" fill="#239F23"/>
<path d="M133.426 204.848L125.578 204.848V212.727H133.426V204.848Z" fill="#239F23"/>
<path d="M141.275 204.848L133.426 204.848V212.727H141.275V204.848Z" fill="#239F23"/>
<path d="M149.123 204.848H141.275V212.727H149.123V204.848Z" fill="#239F23"/>
<path d="M180.518 204.848H172.669V212.727H180.518V204.848Z" fill="#239F23"/>
<path d="M188.366 204.848L180.518 204.848V212.727H188.366V204.848Z" fill="#239F23"/>
<path d="M196.215 204.848H188.366V212.727H196.215V204.848Z" fill="#239F23"/>
<path d="M204.064 204.848L196.215 204.848V212.727H204.064L204.064 204.848Z" fill="#239F23"/>
<path d="M211.912 204.848H204.064L204.064 212.727H211.912V204.848Z" fill="#239F23"/>
<path d="M235.458 204.848H227.609L227.609 212.727H235.458V204.848Z" fill="#239F23"/>
<path d="M86.3346 212.727H78.486V220.606H86.3346V212.727Z" fill="#239F23"/>
<path d="M94.1832 212.727L86.3346 212.727V220.606H94.1832V212.727Z" fill="#239F23"/>
<path d="M117.729 212.727H109.88L109.88 220.606H117.729V212.727Z" fill="#239F23"/>
<path d="M125.578 212.727H117.729V220.606H125.578V212.727Z" fill="#239F23"/>
<path d="M133.426 212.727H125.578V220.606H133.426V212.727Z" fill="#239F23"/>
<path d="M141.275 212.727H133.426V220.606H141.275V212.727Z" fill="#239F23"/>
<path d="M149.123 212.727H141.275V220.606H149.123V212.727Z" fill="#239F23"/>
<path d="M156.972 212.727L149.123 212.727V220.606H156.972V212.727Z" fill="#239F23"/>
<path d="M164.821 212.727H156.972V220.606H164.821V212.727Z" fill="#239F23"/>
<path d="M196.215 212.727H188.366V220.606H196.215V212.727Z" fill="#239F23"/>
<path d="M204.064 212.727H196.215V220.606H204.064V212.727Z" fill="#239F23"/>
<path d="M211.912 212.727H204.064V220.606H211.912V212.727Z" fill="#239F23"/>
<path d="M219.761 212.727L211.912 212.727V220.606H219.761V212.727Z" fill="#239F23"/>
<path d="M227.609 212.727L219.761 212.727V220.606H227.609L227.609 212.727Z" fill="#239F23"/>
<path d="M243.307 212.727L235.458 212.727V220.606H243.307V212.727Z" fill="#239F23"/>
<path d="M117.729 220.606H109.88V228.485H117.729V220.606Z" fill="#239F23"/>
<path d="M125.578 220.606H117.729V228.485H125.578V220.606Z" fill="#239F23"/>
<path d="M156.972 220.606H149.123L149.123 228.485H156.972V220.606Z" fill="#239F23"/>
<path d="M164.821 220.606H156.972V228.485H164.821V220.606Z" fill="#239F23"/>
<path d="M180.518 220.606H172.669V228.485H180.518V220.606Z" fill="#239F23"/>
<path d="M188.366 220.606L180.518 220.606V228.485H188.366V220.606Z" fill="#239F23"/>
<path d="M196.215 220.606H188.366V228.485H196.215V220.606Z" fill="#239F23"/>
<path d="M204.064 220.606H196.215V228.485H204.064V220.606Z" fill="#239F23"/>
<path d="M211.912 220.606H204.064V228.485H211.912V220.606Z" fill="#239F23"/>
<path d="M219.761 220.606H211.912V228.485H219.761V220.606Z" fill="#239F23"/>
<path d="M227.609 220.606H219.761V228.485H227.609V220.606Z" fill="#239F23"/>
<path d="M243.307 220.606H235.458V228.485H243.307V220.606Z" fill="#239F23"/>
<path d="M94.1832 228.485H86.3346V236.364H94.1832V228.485Z" fill="#239F23"/>
<path d="M102.032 228.485H94.1832V236.364H102.032V228.485Z" fill="#239F23"/>
<path d="M109.88 228.485L102.032 228.485V236.364H109.88L109.88 228.485Z" fill="#239F23"/>
<path d="M117.729 228.485H109.88L109.88 236.364H117.729V228.485Z" fill="#239F23"/>
<path d="M141.275 228.485H133.426V236.364H141.275V228.485Z" fill="#239F23"/>
<path d="M156.972 228.485H149.123V236.364H156.972V228.485Z" fill="#239F23"/>
<path d="M164.821 228.485H156.972V236.364H164.821V228.485Z" fill="#239F23"/>
<path d="M172.669 228.485H164.821V236.364H172.669V228.485Z" fill="#239F23"/>
<path d="M204.064 228.485H196.215V236.364H204.064V228.485Z" fill="#239F23"/>
<path d="M235.458 228.485H227.609L227.609 236.364H235.458V228.485Z" fill="#239F23"/>
<path d="M86.3346 236.364H78.486V244.242H86.3346L86.3346 236.364Z" fill="#239F23"/>
<path d="M109.88 236.364H102.032V244.242H109.88V236.364Z" fill="#239F23"/>
<path d="M117.729 236.364H109.88V244.242H117.729V236.364Z" fill="#239F23"/>
<path d="M133.426 236.364H125.578V244.242H133.426V236.364Z" fill="#239F23"/>
<path d="M141.275 236.364H133.426V244.242H141.275V236.364Z" fill="#239F23"/>
<path d="M149.123 236.364H141.275V244.242H149.123L149.123 236.364Z" fill="#239F23"/>
<path d="M156.972 236.364H149.123L149.123 244.242H156.972V236.364Z" fill="#239F23"/>
<path d="M180.518 236.364H172.669V244.242H180.518V236.364Z" fill="#239F23"/>
<path d="M196.215 236.364H188.366V244.242H196.215V236.364Z" fill="#239F23"/>
<path d="M204.064 236.364H196.215V244.242H204.064V236.364Z" fill="#239F23"/>
<path d="M211.912 236.364H204.064V244.242H211.912V236.364Z" fill="#239F23"/>
<path d="M235.458 236.364H227.609V244.242H235.458V236.364Z" fill="#239F23"/>
<path d="M15.6972 15.7576V70.9091H70.6374V15.7576H15.6972ZM62.3964 62.6364H23.9382V24.0303H62.3964V62.6364Z" fill="#239F23"/>
<path d="M188.366 15.7576V70.9091H243.307V15.7576H188.366ZM235.066 62.6364H196.607V24.0303H235.066V62.6364Z" fill="#239F23"/>
<path d="M15.6972 189.091V244.242H70.6374V189.091H15.6972ZM62.3964 235.97H23.9382V197.364H62.3964V235.97Z" fill="#239F23"/>
<path d="M54.9546 31.5189V55.1515H31.4088L31.4154 38.0461C31.4151 34.4456 34.2835 31.5152 37.805 31.5152H48.5249C49.6273 31.5152 51.2346 31.5152 52.568 31.5189C53.8981 31.5189 54.9546 31.5189 54.9546 31.5189Z" fill="#239F23"/>
<path d="M204.049 31.5189V55.1515H227.595L227.588 38.0461C227.589 34.4456 224.72 31.5152 221.199 31.5152H210.479C209.377 31.5152 207.769 31.5152 206.436 31.5189C205.106 31.5189 204.049 31.5189 204.049 31.5189Z" fill="#239F23"/>
<path d="M54.9546 228.481V204.848H31.4088L31.4154 221.954C31.4151 225.554 34.2835 228.485 37.805 228.485H48.5249C49.6273 228.485 51.2346 228.485 52.568 228.481C53.8981 228.481 54.9546 228.481 54.9546 228.481Z" fill="#239F23"/>
</svg>
